<svg width="38.839" height="5.62" viewBox="0 0 38.839 11.62" xmlns="http://www.w3.org/2000/svg"><g id="svgGroup" stroke-linecap="round" fill-rule="evenodd" font-size="9pt" stroke="#ffffff" stroke-width="0.25mm" fill="#ffffff" style="stroke:#ffffff;stroke-width:0.25mm;fill:#ffffff"><path d="M 9.426 7.563 L 9.36 7.797 A 4.924 4.924 0 0 1 9.357 7.839 Q 9.352 7.89 9.347 7.928 A 1.545 1.545 0 0 1 9.346 7.94 A 1.517 1.517 0 0 1 9.342 7.966 Q 9.338 7.994 9.334 8.013 A 0.361 0.361 0 0 1 9.331 8.024 L 9.316 8.083 A 1.218 1.218 0 0 0 9.309 8.114 A 1.674 1.674 0 0 0 9.302 8.149 A 5.753 5.753 0 0 1 9.038 9.145 A 0.549 0.549 0 0 0 9.063 9.272 A 0.711 0.711 0 0 0 9.097 9.357 A 0.275 0.275 0 0 1 9.118 9.418 Q 9.136 9.496 9.126 9.613 Q 9.17 9.621 9.212 9.621 A 0.46 0.46 0 0 0 9.294 9.613 Q 9.356 9.602 9.405 9.591 A 1.545 1.545 0 0 0 9.434 9.584 A 2.865 2.865 0 0 0 10.02 9.262 A 8.201 8.201 0 0 1 10.415 8.976 A 11.31 11.31 0 0 0 10.669 8.796 A 9.512 9.512 0 0 0 10.811 8.691 A 0.855 0.855 0 0 0 10.911 8.599 A 0.775 0.775 0 0 0 10.928 8.581 A 0.83 0.83 0 0 1 11.029 8.484 A 0.929 0.929 0 0 1 11.045 8.471 A 2.054 2.054 0 0 1 11.198 8.359 A 1.575 1.575 0 0 1 11.331 8.28 Q 11.47 8.207 11.616 8.134 A 0.818 0.818 0 0 0 11.667 8.101 Q 11.706 8.073 11.733 8.046 L 11.836 7.943 Q 11.909 7.87 12.041 7.79 A 3.76 3.76 0 0 1 12.185 7.706 A 2.934 2.934 0 0 1 12.29 7.65 A 1.07 1.07 0 0 1 12.308 7.65 Q 12.472 7.647 12.498 7.7 A 0.048 0.048 0 0 1 12.502 7.716 L 12.524 7.856 A 5.328 5.328 0 0 0 12.187 8.109 A 4.871 4.871 0 0 0 12.166 8.127 A 104.265 104.265 0 0 0 11.821 8.412 A 2.368 2.368 0 0 1 11.779 8.44 A 1.722 1.722 0 0 1 11.741 8.463 Q 11.704 8.485 11.631 8.515 A 0.539 0.539 0 0 0 11.599 8.54 Q 11.569 8.566 11.554 8.59 A 0.141 0.141 0 0 0 11.55 8.595 A 0.128 0.128 0 0 1 11.533 8.618 Q 11.507 8.645 11.455 8.676 Q 11.411 8.712 11.367 8.745 A 2.188 2.188 0 0 0 11.279 8.815 A 1.509 1.509 0 0 0 11.127 8.945 A 1.391 1.391 0 0 0 11.118 8.954 A 3.357 3.357 0 0 0 10.975 9.062 A 2.903 2.903 0 0 0 10.928 9.101 A 2.509 2.509 0 0 0 10.809 9.206 A 2.161 2.161 0 0 0 10.767 9.247 A 1.085 1.085 0 0 0 10.689 9.333 A 0.831 0.831 0 0 0 10.635 9.408 A 0.441 0.441 0 0 1 10.598 9.46 Q 10.577 9.486 10.549 9.513 A 1.103 1.103 0 0 1 10.488 9.569 A 0.495 0.495 0 0 0 10.417 9.605 A 0.391 0.391 0 0 0 10.364 9.643 L 10.254 9.731 Q 10.231 9.798 10.218 9.852 A 1.084 1.084 0 0 0 10.21 9.884 Q 10.204 9.935 10.143 10.002 A 0.632 0.632 0 0 1 10.122 10.024 Q 10.027 10.107 9.994 10.147 A 0.143 0.143 0 0 0 9.983 10.163 Q 9.967 10.19 9.938 10.221 A 0.656 0.656 0 0 1 9.917 10.243 Q 9.888 10.265 9.814 10.295 A 0.28 0.28 0 0 0 9.767 10.311 A 0.318 0.318 0 0 0 9.756 10.317 L 9.697 10.346 A 0.515 0.515 0 0 0 9.631 10.39 Q 9.6 10.414 9.57 10.444 A 0.825 0.825 0 0 0 9.565 10.448 A 1.439 1.439 0 0 1 9.511 10.5 A 1.581 1.581 0 0 1 9.503 10.507 A 1.734 1.734 0 0 1 9.443 10.558 A 1.902 1.902 0 0 1 9.434 10.566 A 3.666 3.666 0 0 1 9.377 10.6 A 2.896 2.896 0 0 1 9.324 10.631 A 0.822 0.822 0 0 0 9.279 10.659 Q 9.258 10.673 9.241 10.686 A 0.491 0.491 0 0 0 9.236 10.69 A 0.254 0.254 0 0 1 9.196 10.714 Q 9.151 10.736 9.081 10.756 A 1.436 1.436 0 0 1 9.023 10.771 A 1.271 1.271 0 0 1 8.964 10.808 Q 8.865 10.866 8.813 10.866 A 0.083 0.083 0 0 1 8.804 10.866 A 0.164 0.164 0 0 0 8.79 10.864 Q 8.745 10.861 8.657 10.873 A 0.052 0.052 0 0 1 8.647 10.876 Q 8.622 10.88 8.601 10.857 A 0.117 0.117 0 0 1 8.591 10.844 A 0.104 0.104 0 0 0 8.565 10.816 Q 8.543 10.801 8.514 10.8 A 0.118 0.118 0 0 0 8.511 10.8 A 0.587 0.587 0 0 0 8.477 10.771 Q 8.406 10.715 8.364 10.727 Q 8.306 10.741 8.262 10.712 A 1.47 1.47 0 0 1 8.205 10.643 Q 8.125 10.539 8.116 10.477 A 0.103 0.103 0 0 1 8.115 10.463 A 1.158 1.158 0 0 0 8.113 10.395 A 1.31 1.31 0 0 0 8.112 10.371 A 1.483 1.483 0 0 0 8.104 10.298 A 1.676 1.676 0 0 0 8.101 10.273 A 106.587 106.587 0 0 1 8.042 9.826 A 6.663 6.663 0 0 1 8.006 9.473 A 7.575 7.575 0 0 1 7.998 9.35 A 0.841 0.841 0 0 1 8.007 9.227 A 0.7 0.7 0 0 1 8.02 9.159 A 1.59 1.59 0 0 0 8.039 9.081 Q 8.052 9.019 8.057 8.969 A 0.272 0.272 0 0 0 8.055 8.945 Q 8.053 8.912 8.042 8.859 A 2.025 2.025 0 0 1 8.036 8.829 Q 8.027 8.781 8.027 8.764 Q 8.042 8.639 8.071 8.544 A 0.379 0.379 0 0 0 8.088 8.463 Q 8.093 8.415 8.088 8.361 A 0.67 0.67 0 0 0 8.086 8.339 A 7.254 7.254 0 0 1 8.018 8.417 Q 7.99 8.447 7.965 8.474 A 3.909 3.909 0 0 1 7.917 8.526 A 10.608 10.608 0 0 1 7.866 8.58 Q 7.825 8.622 7.793 8.654 A 3.849 3.849 0 0 0 7.694 8.756 Q 7.646 8.808 7.603 8.866 Q 7.375 8.998 7.222 9.123 A 1.142 1.142 0 0 1 7.005 9.261 A 1.498 1.498 0 0 1 6.826 9.335 A 7.486 7.486 0 0 1 6.674 9.483 A 6.699 6.699 0 0 1 6.625 9.529 A 5.981 5.981 0 0 1 6.479 9.66 A 5.32 5.32 0 0 1 6.431 9.701 A 5.644 5.644 0 0 0 6.286 9.828 A 6.331 6.331 0 0 0 6.237 9.873 A 7.086 7.086 0 0 0 6.086 10.017 A 7.901 7.901 0 0 0 6.035 10.067 A 2.005 2.005 0 0 1 5.807 10.32 A 1.464 1.464 0 0 1 5.508 10.536 A 2.108 2.108 0 0 1 5.459 10.55 Q 5.391 10.567 5.347 10.573 Q 5.289 10.58 5.232 10.538 A 0.257 0.257 0 0 1 5.229 10.536 A 0.943 0.943 0 0 1 5.051 10.407 A 0.611 0.611 0 0 1 4.863 10.082 A 1.242 1.242 0 0 1 4.837 9.848 Q 4.835 9.726 4.855 9.593 A 1.905 1.905 0 0 1 4.878 9.467 A 0.293 0.293 0 0 1 4.854 9.388 Q 4.838 9.288 4.874 9.145 A 1.233 1.233 0 0 1 4.896 9.068 A 1.349 1.349 0 0 0 4.922 8.977 Q 4.968 8.791 4.924 8.696 A 0.182 0.182 0 0 0 4.922 8.691 A 4.157 4.157 0 0 1 4.973 8.467 Q 5.002 8.354 5.039 8.236 A 2.959 2.959 0 0 0 5.101 8.006 Q 5.127 7.892 5.142 7.782 A 0.338 0.338 0 0 0 5.162 7.75 Q 5.206 7.67 5.164 7.621 A 2.519 2.519 0 0 0 5.116 7.568 Q 5.093 7.543 5.071 7.521 A 1.511 1.511 0 0 0 5.068 7.519 A 3.178 3.178 0 0 0 4.592 7.863 Q 4.365 8.061 4.131 8.266 A 32.241 32.241 0 0 1 4.031 8.353 A 29.031 29.031 0 0 1 4.017 8.365 A 31.356 31.356 0 0 0 3.918 8.451 A 34.766 34.766 0 0 0 3.904 8.463 A 1.434 1.434 0 0 1 3.794 8.562 A 4.2 4.2 0 0 0 3.677 8.661 L 3.442 8.859 A 1.343 1.343 0 0 0 3.322 8.97 A 1.041 1.041 0 0 0 3.237 9.071 Q 3.164 9.173 3.112 9.222 A 0.321 0.321 0 0 1 3.083 9.247 L 2.988 9.32 A 0.526 0.526 0 0 0 2.871 9.408 Q 2.842 9.438 2.783 9.482 Q 2.747 9.512 2.692 9.537 A 0.646 0.646 0 0 1 2.666 9.547 L 2.534 9.599 Q 2.452 9.653 2.364 9.739 A 1.716 1.716 0 0 0 2.351 9.753 L 2.183 9.921 A 1.49 1.49 0 0 1 2.104 9.994 A 1.795 1.795 0 0 1 2.051 10.038 A 1.075 1.075 0 0 0 2.005 10.078 Q 1.959 10.12 1.934 10.155 A 2.539 2.539 0 0 1 1.837 10.284 A 3.443 3.443 0 0 1 1.721 10.419 A 38.382 38.382 0 0 1 1.629 10.524 A 42.2 42.2 0 0 1 1.615 10.54 A 2.687 2.687 0 0 0 1.509 10.668 Q 1.501 10.734 1.428 10.807 L 1.289 10.946 A 1.439 1.439 0 0 0 1.238 11 A 1.581 1.581 0 0 0 1.23 11.009 Q 1.201 11.042 1.165 11.078 A 0.413 0.413 0 0 1 1.025 11.181 L 0.923 11.203 A 0.711 0.711 0 0 0 0.881 11.212 Q 0.832 11.224 0.806 11.239 A 2.067 2.067 0 0 0 0.738 11.263 A 2.391 2.391 0 0 0 0.714 11.272 A 2.741 2.741 0 0 0 0.641 11.302 A 3.133 3.133 0 0 0 0.615 11.313 A 0.361 0.361 0 0 1 0.496 11.344 Q 0.452 11.348 0.404 11.343 A 0.566 0.566 0 0 1 0.396 11.342 L 0.22 11.32 Q 0.171 11.315 0.115 11.281 A 0.511 0.511 0 0 1 0.073 11.254 Q 0.073 11.182 0.046 11.138 A 0.135 0.135 0 0 0 0 11.093 A 2.357 2.357 0 0 1 0.042 10.906 A 1.743 1.743 0 0 1 0.095 10.741 A 2.442 2.442 0 0 0 0.19 10.404 Q 0.3 10.251 0.359 10.075 A 2.357 2.357 0 0 1 0.457 9.83 A 2.776 2.776 0 0 1 0.513 9.716 A 5.388 5.388 0 0 1 0.614 9.457 A 6.313 6.313 0 0 1 0.667 9.335 L 0.82 8.983 A 13.415 13.415 0 0 0 0.862 8.856 A 11.697 11.697 0 0 0 0.875 8.815 A 10.471 10.471 0 0 0 0.9 8.736 A 9.01 9.01 0 0 0 0.923 8.661 A 1.089 1.089 0 0 1 0.973 8.52 A 0.813 0.813 0 0 1 1.04 8.398 A 1.829 1.829 0 0 0 1.077 8.334 Q 1.137 8.229 1.143 8.178 A 0.766 0.766 0 0 0 1.243 8.028 A 0.541 0.541 0 0 0 1.304 7.782 Q 1.384 7.694 1.421 7.533 Q 1.458 7.379 1.509 7.255 L 1.56 7.152 Q 1.575 7.122 1.587 7.079 A 0.722 0.722 0 0 0 1.597 7.035 A 1.113 1.113 0 0 0 1.602 6.998 Q 1.61 6.933 1.604 6.898 A 0.136 0.136 0 0 0 1.604 6.896 A 0.138 0.138 0 0 1 1.603 6.879 Q 1.603 6.84 1.623 6.792 A 0.415 0.415 0 0 1 1.641 6.757 A 0.857 0.857 0 0 1 1.677 6.714 A 0.711 0.711 0 0 1 1.699 6.691 L 1.758 6.632 L 1.816 6.574 A 0.745 0.745 0 0 0 1.853 6.534 A 0.897 0.897 0 0 0 1.875 6.508 A 0.125 0.125 0 0 0 1.965 6.454 A 0.188 0.188 0 0 0 1.978 6.435 A 0.289 0.289 0 0 1 2.016 6.385 A 0.226 0.226 0 0 1 2.065 6.347 A 3.13 3.13 0 0 0 2.121 6.329 Q 2.225 6.293 2.246 6.276 A 0.032 0.032 0 0 0 2.249 6.274 A 0.513 0.513 0 0 1 2.259 6.264 Q 2.277 6.246 2.284 6.244 A 0.005 0.005 0 0 1 2.285 6.244 L 2.505 6.134 A 0.295 0.295 0 0 1 2.552 6.109 A 0.918 0.918 0 0 0 2.579 6.097 A 1.168 1.168 0 0 0 2.607 6.083 A 0.551 0.551 0 0 1 2.628 6.073 Q 2.639 6.068 2.648 6.065 A 0.266 0.266 0 0 1 2.659 6.061 Q 2.681 6.054 2.695 6.046 A 0.204 0.204 0 0 1 2.707 6.041 Q 2.714 6.038 2.722 6.035 A 0.416 0.416 0 0 1 2.732 6.032 A 0.288 0.288 0 0 0 2.749 6.025 Q 2.759 6.021 2.77 6.016 A 0.588 0.588 0 0 0 2.783 6.01 A 0.363 0.363 0 0 1 2.809 5.987 Q 2.836 5.965 2.875 5.938 A 1.442 1.442 0 0 1 2.9 5.922 A 1.321 1.321 0 0 0 2.942 5.894 Q 2.991 5.86 3.018 5.834 Q 3.164 5.893 3.267 6.017 A 0.314 0.314 0 0 1 3.336 6.188 Q 3.341 6.238 3.334 6.294 A 0.629 0.629 0 0 1 3.325 6.347 A 0.66 0.66 0 0 1 3.281 6.486 A 3.15 3.15 0 0 1 3.238 6.58 A 2.723 2.723 0 0 1 3.223 6.61 Q 3.201 6.662 3.186 6.75 A 0.818 0.818 0 0 1 3.178 6.79 Q 3.169 6.831 3.158 6.856 A 0.149 0.149 0 0 1 3.149 6.874 A 4.061 4.061 0 0 0 3.103 6.96 Q 3.06 7.04 3.036 7.096 A 0.664 0.664 0 0 0 3.018 7.145 A 1.947 1.947 0 0 1 2.99 7.222 Q 2.976 7.26 2.962 7.292 A 0.94 0.94 0 0 1 2.944 7.328 A 1.836 1.836 0 0 0 2.853 7.495 A 1.673 1.673 0 0 0 2.842 7.519 A 3.032 3.032 0 0 1 2.812 7.594 Q 2.799 7.628 2.786 7.656 A 1.308 1.308 0 0 1 2.761 7.709 A 0.481 0.481 0 0 1 2.715 7.782 Q 2.688 7.819 2.651 7.856 Q 2.593 7.929 2.563 7.958 Q 2.512 8.009 2.476 8.075 A 3.395 3.395 0 0 0 2.386 8.196 A 3.76 3.76 0 0 0 2.373 8.214 A 4.153 4.153 0 0 0 2.283 8.348 A 4.584 4.584 0 0 0 2.271 8.368 A 2.085 2.085 0 0 1 2.051 8.661 L 1.897 8.954 Q 1.824 9.093 1.743 9.262 A 0.164 0.164 0 0 0 1.817 9.237 A 0.168 0.168 0 0 0 1.86 9.196 Q 1.89 9.159 1.963 9.101 L 2.007 9.071 A 0.407 0.407 0 0 1 2.031 9.057 A 0.561 0.561 0 0 1 2.058 9.042 A 0.563 0.563 0 0 0 2.085 9.028 A 0.409 0.409 0 0 0 2.109 9.013 L 2.153 8.983 A 2.329 2.329 0 0 0 2.371 8.804 A 1.922 1.922 0 0 0 2.483 8.691 A 2.449 2.449 0 0 1 2.731 8.464 A 2.79 2.79 0 0 1 2.798 8.412 Q 2.893 8.302 2.992 8.203 L 3.186 8.009 A 2.806 2.806 0 0 0 3.39 7.791 A 3.588 3.588 0 0 0 3.545 7.592 Q 3.779 7.416 3.984 7.211 A 2.167 2.167 0 0 0 4.082 7.146 Q 4.128 7.113 4.167 7.081 A 1.101 1.101 0 0 0 4.211 7.043 A 0.929 0.929 0 0 1 4.287 6.981 Q 4.326 6.952 4.374 6.922 A 2.063 2.063 0 0 1 4.453 6.874 A 15.925 15.925 0 0 1 4.53 6.783 A 20.418 20.418 0 0 1 4.614 6.684 A 0.888 0.888 0 0 1 4.819 6.508 Q 4.939 6.388 5.066 6.336 A 0.567 0.567 0 0 1 5.076 6.332 Q 5.204 6.282 5.325 6.164 A 1.075 1.075 0 0 0 5.332 6.156 A 0.673 0.673 0 0 1 5.431 6.113 Q 5.592 6.058 5.728 6.12 A 0.989 0.989 0 0 1 5.867 6.197 Q 5.948 6.252 6.006 6.317 A 0.772 0.772 0 0 0 6.065 6.436 Q 6.112 6.513 6.182 6.596 L 6.211 6.64 A 0.294 0.294 0 0 0 6.224 6.658 Q 6.232 6.668 6.24 6.676 Q 6.265 6.701 6.269 6.764 A 0.384 0.384 0 0 1 6.27 6.786 A 1.33 1.33 0 0 1 6.226 7.123 Q 6.204 7.204 6.185 7.284 A 3.77 3.77 0 0 0 6.152 7.445 A 2.982 2.982 0 0 0 6.13 7.647 Q 6.123 7.746 6.116 7.848 A 1.635 1.635 0 0 1 6.087 8.095 A 2.041 2.041 0 0 1 6.05 8.251 A 1.549 1.549 0 0 1 6.189 8.5 A 0.884 0.884 0 0 0 6.24 8.603 Q 6.28 8.672 6.328 8.72 Q 6.379 8.712 6.46 8.603 A 0.875 0.875 0 0 1 6.537 8.548 A 1.926 1.926 0 0 1 6.58 8.521 A 2.647 2.647 0 0 1 6.628 8.493 A 0.972 0.972 0 0 0 6.711 8.44 Q 6.753 8.41 6.786 8.379 A 0.574 0.574 0 0 0 6.797 8.368 L 6.907 8.258 A 1.852 1.852 0 0 1 6.995 8.176 A 1.665 1.665 0 0 1 7.009 8.163 Q 7.119 8.068 7.207 7.958 A 3.849 3.849 0 0 1 7.31 7.859 A 3.459 3.459 0 0 1 7.412 7.768 A 24.986 24.986 0 0 0 7.491 7.7 A 27.894 27.894 0 0 0 7.518 7.676 Q 7.573 7.629 7.632 7.577 Q 7.69 7.519 7.742 7.456 A 5.3 5.3 0 0 1 7.844 7.336 A 5.3 5.3 0 0 0 7.947 7.215 A 1.693 1.693 0 0 1 8.057 7.094 A 0.431 0.431 0 0 1 8.085 7.061 Q 8.114 7.03 8.141 7.018 A 0.102 0.102 0 0 1 8.152 7.013 A 0.124 0.124 0 0 0 8.198 6.978 Q 8.211 6.963 8.222 6.942 A 0.277 0.277 0 0 0 8.232 6.918 A 0.514 0.514 0 0 0 8.367 6.826 A 0.658 0.658 0 0 0 8.43 6.757 A 0.406 0.406 0 0 1 8.572 6.644 A 0.545 0.545 0 0 1 8.657 6.61 Q 8.799 6.596 8.845 6.61 A 0.078 0.078 0 0 1 8.848 6.61 A 0.128 0.128 0 0 1 8.872 6.622 Q 8.914 6.647 8.979 6.713 A 0.292 0.292 0 0 1 9.069 6.814 A 0.378 0.378 0 0 1 9.089 6.859 A 0.349 0.349 0 0 0 9.133 6.941 A 0.282 0.282 0 0 0 9.199 7.006 A 3.464 3.464 0 0 0 9.254 7.111 Q 9.332 7.255 9.385 7.311 A 0.198 0.198 0 0 0 9.404 7.328 Q 9.456 7.445 9.426 7.563 Z M 28.491 3.066 L 29.07 2.985 Q 29.231 2.965 29.437 2.941 A 59.174 59.174 0 0 1 29.634 2.919 A 1.08 1.08 0 0 1 29.724 2.915 A 1.218 1.218 0 0 1 29.817 2.919 A 1.847 1.847 0 0 0 29.866 2.925 A 1.451 1.451 0 0 0 29.912 2.93 A 1.058 1.058 0 0 0 30 2.934 A 4.683 4.683 0 0 0 30.374 2.919 A 35.163 35.163 0 0 0 30.551 2.904 A 29.072 29.072 0 0 0 30.718 2.89 A 1.877 1.877 0 0 0 30.746 2.882 A 1.557 1.557 0 0 0 30.773 2.875 A 1.277 1.277 0 0 0 30.797 2.868 A 1.034 1.034 0 0 0 30.82 2.86 A 0.138 0.138 0 0 1 30.864 2.853 A 0.138 0.138 0 0 1 30.908 2.86 L 31.04 2.86 Q 31.106 2.86 31.172 2.853 A 0.314 0.314 0 0 1 31.189 2.853 Q 31.292 2.853 31.376 2.921 A 0.393 0.393 0 0 1 31.406 2.948 A 2.088 2.088 0 0 1 31.417 2.987 Q 31.448 3.097 31.436 3.109 Q 31.414 3.131 31.406 3.153 A 1.569 1.569 0 0 1 31.401 3.208 Q 31.388 3.323 31.364 3.341 A 0.015 0.015 0 0 1 31.355 3.344 Q 31.322 3.344 31.319 3.368 A 0.041 0.041 0 0 0 31.318 3.373 A 13.728 13.728 0 0 0 31.236 3.394 Q 31.203 3.402 31.175 3.41 A 6.635 6.635 0 0 0 31.121 3.424 A 0.203 0.203 0 0 0 30.996 3.52 A 1.604 1.604 0 0 1 30.804 3.548 Q 30.663 3.559 30.535 3.542 A 0.66 0.66 0 0 0 30.422 3.532 Q 30.309 3.532 30.193 3.571 A 0.882 0.882 0 0 0 30.103 3.608 A 2.898 2.898 0 0 0 29.89 3.717 Q 29.788 3.783 29.619 3.725 Q 29.473 3.725 29.282 3.739 A 59.495 59.495 0 0 0 29.005 3.761 A 52.751 52.751 0 0 0 28.916 3.769 A 81.642 81.642 0 0 1 28.66 3.791 Q 28.516 3.803 28.356 3.816 Q 28.117 3.836 27.963 3.845 A 6.242 6.242 0 0 1 27.876 3.849 A 70.472 70.472 0 0 0 27.787 3.853 Q 27.686 3.858 27.548 3.865 A 284.574 284.574 0 0 0 27.415 3.871 Q 27.156 3.884 26.947 3.886 A 7.955 7.955 0 0 1 26.88 3.886 A 0.444 0.444 0 0 0 26.726 4.135 A 0.407 0.407 0 0 1 26.572 4.369 A 7.976 7.976 0 0 1 26.518 4.487 Q 26.428 4.68 26.382 4.743 A 0.526 0.526 0 0 0 26.326 4.836 Q 26.305 4.883 26.288 4.938 A 0.95 0.95 0 0 0 26.279 4.97 A 5.18 5.18 0 0 0 25.906 5.519 A 3.228 3.228 0 0 1 25.707 5.818 A 4.11 4.11 0 0 1 25.518 6.054 A 0.82 0.82 0 0 1 25.459 6.245 A 0.713 0.713 0 0 1 25.408 6.339 A 0.599 0.599 0 0 0 25.36 6.436 Q 25.339 6.488 25.323 6.55 A 1.474 1.474 0 0 0 25.298 6.669 A 1.405 1.405 0 0 0 25.118 6.994 A 1.719 1.719 0 0 0 25.063 7.152 A 4.711 4.711 0 0 1 25.002 7.354 A 5.247 5.247 0 0 1 24.979 7.423 A 5.839 5.839 0 0 1 24.902 7.636 A 6.482 6.482 0 0 1 24.873 7.709 Q 24.844 7.826 24.807 7.936 A 6.328 6.328 0 0 1 24.748 8.105 A 7.107 7.107 0 0 1 24.727 8.163 A 1.448 1.448 0 0 1 24.653 8.322 A 1.821 1.821 0 0 1 24.587 8.434 A 3.961 3.961 0 0 0 24.55 8.496 A 4.971 4.971 0 0 0 24.51 8.562 Q 24.47 8.632 24.434 8.705 Q 24.404 8.734 24.404 8.786 Q 24.404 8.82 24.391 8.861 A 0.362 0.362 0 0 1 24.39 8.866 A 3.981 3.981 0 0 1 24.351 8.953 A 3.627 3.627 0 0 1 24.346 8.965 A 1.032 1.032 0 0 1 24.324 9.01 A 0.759 0.759 0 0 1 24.302 9.049 A 0.748 0.748 0 0 0 24.286 9.078 Q 24.269 9.111 24.248 9.158 A 3.113 3.113 0 0 0 24.229 9.203 A 0.324 0.324 0 0 0 24.216 9.238 Q 24.202 9.285 24.192 9.357 A 1.199 1.199 0 0 1 24.183 9.411 Q 24.171 9.474 24.155 9.511 L 24.141 9.555 Q 24.133 9.577 24.126 9.591 A 0.204 0.204 0 0 0 24.12 9.603 Q 24.118 9.61 24.115 9.618 A 0.416 0.416 0 0 0 24.111 9.628 L 24.097 9.672 A 1.274 1.274 0 0 0 24.085 9.733 Q 24.064 9.862 24.086 9.927 A 0.123 0.123 0 0 0 24.097 9.95 A 1.05 1.05 0 0 1 24.157 10.067 A 0.935 0.935 0 0 1 24.17 10.097 Q 24.185 10.141 24.199 10.177 L 24.229 10.251 A 0.357 0.357 0 0 1 24.272 10.39 L 24.346 10.419 A 1.002 1.002 0 0 1 24.38 10.434 A 0.759 0.759 0 0 1 24.412 10.448 A 0.269 0.269 0 0 0 24.484 10.472 A 0.373 0.373 0 0 0 24.551 10.478 A 0.167 0.167 0 0 0 24.576 10.48 Q 24.659 10.48 24.741 10.397 Q 24.822 10.316 24.885 10.294 A 0.142 0.142 0 0 1 24.917 10.287 A 0.562 0.562 0 0 1 25.029 10.263 A 0.731 0.731 0 0 1 25.115 10.258 A 0.351 0.351 0 0 0 25.211 10.245 A 0.298 0.298 0 0 0 25.283 10.214 A 1.255 1.255 0 0 0 25.343 10.161 A 1.081 1.081 0 0 0 25.364 10.141 A 0.93 0.93 0 0 0 25.413 10.088 A 0.802 0.802 0 0 0 25.43 10.067 A 0.195 0.195 0 0 1 25.477 10.019 Q 25.501 10.001 25.533 9.987 A 0.494 0.494 0 0 1 25.591 9.965 A 2.827 2.827 0 0 0 25.668 9.945 Q 25.812 9.904 25.836 9.876 A 0.023 0.023 0 0 0 25.84 9.87 Q 25.847 9.84 25.942 9.76 A 3.473 3.473 0 0 0 26.041 9.687 A 6.958 6.958 0 0 0 26.081 9.656 Q 26.099 9.642 26.115 9.629 A 4.137 4.137 0 0 0 26.125 9.621 A 0.696 0.696 0 0 1 26.16 9.593 Q 26.219 9.547 26.323 9.482 A 12.794 12.794 0 0 0 26.374 9.456 Q 26.46 9.412 26.485 9.398 A 0.143 0.143 0 0 0 26.492 9.394 A 0.223 0.223 0 0 0 26.503 9.386 Q 26.528 9.367 26.588 9.315 A 9.608 9.608 0 0 0 26.616 9.291 A 1.471 1.471 0 0 0 26.716 9.237 A 1.268 1.268 0 0 0 26.752 9.214 Q 26.814 9.174 26.865 9.13 A 0.805 0.805 0 0 1 26.923 9.083 Q 26.989 9.033 27.086 8.977 A 2.604 2.604 0 0 1 27.1 8.969 Q 27.247 8.908 27.283 8.885 A 0.06 0.06 0 0 0 27.294 8.877 A 0.093 0.093 0 0 0 27.314 8.847 A 0.121 0.121 0 0 0 27.319 8.83 Q 27.326 8.802 27.463 8.716 A 2.864 2.864 0 0 1 27.48 8.705 A 0.672 0.672 0 0 1 27.588 8.541 A 0.628 0.628 0 0 1 27.612 8.515 Q 27.648 8.479 27.69 8.434 A 3.781 3.781 0 0 0 27.693 8.431 A 4.699 4.699 0 0 0 27.739 8.38 A 6.188 6.188 0 0 0 27.788 8.324 A 1.536 1.536 0 0 1 27.867 8.239 Q 27.907 8.2 27.946 8.169 A 0.836 0.836 0 0 1 27.971 8.149 Q 28.074 8.068 28.14 8.002 A 0.413 0.413 0 0 0 28.159 7.986 Q 28.179 7.969 28.205 7.944 A 1.404 1.404 0 0 0 28.213 7.936 A 0.179 0.179 0 0 1 28.272 7.896 A 0.17 0.17 0 0 1 28.315 7.885 Q 28.359 7.848 28.392 7.819 A 1.473 1.473 0 0 0 28.447 7.768 A 1.342 1.342 0 0 0 28.455 7.76 A 1.615 1.615 0 0 1 28.482 7.733 Q 28.497 7.72 28.513 7.705 A 2.84 2.84 0 0 1 28.524 7.694 A 5.057 5.057 0 0 1 28.557 7.665 Q 28.586 7.639 28.623 7.607 L 28.696 7.533 A 0.794 0.794 0 0 1 28.717 7.513 Q 28.747 7.486 28.764 7.477 A 0.046 0.046 0 0 1 28.77 7.475 A 0.156 0.156 0 0 1 28.805 7.479 A 0.095 0.095 0 0 1 28.865 7.519 A 0.117 0.117 0 0 0 28.949 7.562 A 0.149 0.149 0 0 0 28.96 7.563 Q 28.953 7.658 28.949 7.716 Q 28.946 7.761 28.946 7.789 A 0.652 0.652 0 0 0 28.945 7.804 Q 28.945 7.863 28.916 7.914 A 0.478 0.478 0 0 1 28.868 7.979 Q 28.799 8.055 28.718 8.061 Q 28.624 8.073 28.567 8.184 A 0.45 0.45 0 0 0 28.55 8.222 Q 28.506 8.192 28.44 8.207 A 0.329 0.329 0 0 0 28.404 8.217 Q 28.365 8.23 28.345 8.251 A 0.232 0.232 0 0 1 28.367 8.302 A 0.186 0.186 0 0 1 28.374 8.354 A 0.195 0.195 0 0 0 28.375 8.371 Q 28.378 8.4 28.388 8.451 A 1.888 1.888 0 0 0 28.389 8.456 Q 28.118 8.727 28.037 8.881 Q 27.89 9.034 27.856 9.078 A 0.079 0.079 0 0 0 27.847 9.092 L 27.832 9.115 L 27.715 9.233 A 2.171 2.171 0 0 0 27.581 9.346 Q 27.473 9.446 27.407 9.54 Q 27.334 9.647 27.192 9.745 A 1.475 1.475 0 0 1 27.1 9.804 A 4.877 4.877 0 0 0 27.025 9.859 Q 26.925 9.935 26.881 9.979 A 0.472 0.472 0 0 0 26.88 9.98 Q 26.86 10 26.833 10.025 A 3.408 3.408 0 0 1 26.807 10.049 A 4.789 4.789 0 0 1 26.765 10.087 Q 26.737 10.112 26.704 10.141 A 0.785 0.785 0 0 0 26.684 10.162 Q 26.651 10.197 26.6 10.259 A 5.202 5.202 0 0 0 26.594 10.265 Q 26.528 10.344 26.48 10.382 A 0.307 0.307 0 0 1 26.47 10.39 Q 26.375 10.463 26.272 10.522 A 0.441 0.441 0 0 0 26.208 10.565 Q 26.178 10.589 26.147 10.621 A 0.976 0.976 0 0 0 26.104 10.668 A 1.047 1.047 0 0 0 25.96 10.745 Q 25.853 10.815 25.789 10.902 A 0.81 0.81 0 0 1 25.7 11 Q 25.619 11.076 25.503 11.151 Q 25.385 11.23 25.191 11.344 A 13.183 13.183 0 0 1 25.144 11.371 Q 24.991 11.46 24.869 11.515 A 1.616 1.616 0 0 1 24.756 11.562 L 24.712 11.576 Q 24.69 11.584 24.675 11.591 A 0.204 0.204 0 0 1 24.663 11.596 Q 24.656 11.599 24.649 11.602 A 0.416 0.416 0 0 1 24.639 11.606 L 24.595 11.62 Q 24.478 11.547 24.368 11.474 A 0.544 0.544 0 0 1 24.23 11.34 A 0.686 0.686 0 0 1 24.185 11.269 Q 24.046 11.166 23.972 11.122 A 0.778 0.778 0 0 1 23.855 11.039 A 0.688 0.688 0 0 1 23.818 11.005 A 6.874 6.874 0 0 0 23.665 10.756 Q 23.584 10.631 23.489 10.507 Q 23.298 10.251 23.203 9.95 A 0.164 0.164 0 0 1 23.191 9.926 Q 23.181 9.898 23.172 9.856 A 0.868 0.868 0 0 1 23.167 9.826 L 23.145 9.687 A 3.754 3.754 0 0 0 23.13 9.63 A 3.115 3.115 0 0 0 23.115 9.577 A 2.555 2.555 0 0 0 23.101 9.527 A 2.069 2.069 0 0 0 23.086 9.482 A 0.235 0.235 0 0 1 23.074 9.44 Q 23.061 9.374 23.071 9.268 A 1.16 1.16 0 0 1 23.071 9.262 A 0.632 0.632 0 0 1 23.084 9.134 A 0.547 0.547 0 0 1 23.101 9.071 A 6.156 6.156 0 0 0 23.126 8.979 A 6.774 6.774 0 0 0 23.13 8.965 A 7.467 7.467 0 0 0 23.157 8.859 A 8.115 8.115 0 0 0 23.159 8.852 Q 23.188 8.756 23.225 8.665 A 13.571 13.571 0 0 1 23.298 8.485 A 2.008 2.008 0 0 0 23.381 8.268 A 1.609 1.609 0 0 0 23.423 8.105 A 8.434 8.434 0 0 1 23.575 7.624 A 7.527 7.527 0 0 1 23.613 7.519 Q 23.635 7.467 23.65 7.379 A 0.105 0.105 0 0 1 23.7 7.3 A 0.173 0.173 0 0 1 23.73 7.284 A 2.328 2.328 0 0 1 23.921 6.72 A 17.319 17.319 0 0 1 24.152 6.263 A 15.651 15.651 0 0 1 24.185 6.2 Q 24.265 6.046 24.338 5.889 A 40.191 40.191 0 0 0 24.485 5.57 Q 24.558 5.409 24.631 5.252 A 7.362 7.362 0 0 1 24.785 4.941 Q 24.792 4.779 24.902 4.648 Q 24.908 4.526 24.985 4.389 A 0.997 0.997 0 0 1 25.02 4.333 A 1.372 1.372 0 0 0 25.097 4.199 Q 25.144 4.105 25.166 4.018 A 0.693 0.693 0 0 0 25.01 3.994 Q 24.939 3.992 24.863 4.002 A 1.057 1.057 0 0 0 24.807 4.01 A 32.67 32.67 0 0 0 24.666 4.037 Q 24.554 4.058 24.463 4.076 A 9.765 9.765 0 0 1 24.192 4.08 A 11.435 11.435 0 0 1 23.906 4.076 Q 23.855 4.069 23.807 4.058 A 1.178 1.178 0 0 0 23.715 4.041 A 1.311 1.311 0 0 0 23.708 4.04 A 0.857 0.857 0 0 0 23.582 4.02 A 0.734 0.734 0 0 0 23.525 4.018 Q 23.431 4.023 23.37 4.009 A 0.227 0.227 0 0 1 23.328 3.996 Q 23.254 3.959 23.188 3.988 A 3.284 3.284 0 0 0 22.821 3.714 A 2.995 2.995 0 0 0 22.767 3.681 A 0.746 0.746 0 0 1 22.617 3.562 A 0.558 0.558 0 0 1 22.485 3.344 A 0.079 0.079 0 0 1 22.511 3.286 A 0.126 0.126 0 0 1 22.529 3.271 Q 22.588 3.227 22.603 3.212 A 0.653 0.653 0 0 1 22.788 3.186 A 0.748 0.748 0 0 1 22.866 3.19 Q 22.936 3.194 22.994 3.181 A 0.339 0.339 0 0 0 23.101 3.139 A 1.041 1.041 0 0 0 23.243 3.149 Q 23.386 3.149 23.533 3.109 Q 23.73 3.051 23.95 3.066 A 0.174 0.174 0 0 1 23.969 3.067 Q 23.988 3.069 24.013 3.074 A 0.853 0.853 0 0 1 24.038 3.08 A 0.835 0.835 0 0 0 24.066 3.087 Q 24.104 3.095 24.126 3.095 Q 24.183 3.101 24.227 3.097 A 0.346 0.346 0 0 0 24.25 3.095 L 24.309 3.08 A 1.218 1.218 0 0 1 24.34 3.073 A 1.674 1.674 0 0 1 24.375 3.066 A 0.551 0.551 0 0 1 24.458 3.058 Q 24.498 3.058 24.54 3.062 A 0.771 0.771 0 0 1 24.565 3.066 Q 24.668 3.08 24.771 3.066 Q 24.92 3.055 25.088 3.078 A 2.077 2.077 0 0 1 25.232 3.102 A 1.226 1.226 0 0 0 25.365 3.12 Q 25.501 3.131 25.618 3.106 A 0.706 0.706 0 0 0 25.708 3.08 A 11.4 11.4 0 0 1 25.785 2.871 A 2.254 2.254 0 0 1 25.876 2.663 Q 25.979 2.45 26.03 2.245 A 2.114 2.114 0 0 0 26.096 2.139 A 2.703 2.703 0 0 0 26.147 2.047 A 1.208 1.208 0 0 0 26.204 1.926 A 0.957 0.957 0 0 0 26.235 1.835 L 26.375 1.601 L 26.433 1.513 A 1.007 1.007 0 0 1 26.486 1.441 A 1.138 1.138 0 0 1 26.499 1.425 A 2.634 2.634 0 0 0 26.594 1.205 A 2.012 2.012 0 0 0 26.653 1.022 A 9.633 9.633 0 0 1 26.715 0.813 A 3.83 3.83 0 0 1 26.761 0.676 A 4.57 4.57 0 0 1 26.792 0.59 A 2.948 2.948 0 0 0 26.923 0.439 A 3.494 3.494 0 0 0 26.982 0.363 A 4.125 4.125 0 0 0 27.113 0.181 A 4.85 4.85 0 0 0 27.173 0.092 A 0.278 0.278 0 0 0 27.197 0.094 Q 27.289 0.098 27.341 0.033 A 0.095 0.095 0 0 1 27.415 0 Q 27.462 0 27.526 0.04 A 0.481 0.481 0 0 1 27.539 0.048 A 0.104 0.104 0 0 0 27.559 0.109 A 0.148 0.148 0 0 0 27.576 0.129 Q 27.612 0.165 27.583 0.238 A 1.338 1.338 0 0 1 27.664 0.326 Q 27.743 0.421 27.773 0.502 Q 27.802 0.615 27.755 0.761 A 0.795 0.795 0 0 1 27.751 0.773 A 0.415 0.415 0 0 0 27.733 0.85 Q 27.73 0.873 27.73 0.896 A 0.33 0.33 0 0 0 27.773 1.059 A 0.222 0.222 0 0 1 27.793 1.15 A 0.244 0.244 0 0 1 27.788 1.197 A 0.321 0.321 0 0 0 27.785 1.223 Q 27.779 1.281 27.799 1.316 A 0.099 0.099 0 0 0 27.803 1.322 A 1.095 1.095 0 0 0 27.856 1.425 A 0.928 0.928 0 0 0 27.883 1.469 Q 27.93 1.535 27.934 1.637 A 0.507 0.507 0 0 1 27.935 1.659 A 0.227 0.227 0 0 1 27.932 1.692 Q 27.929 1.709 27.925 1.728 A 0.567 0.567 0 0 1 27.913 1.769 A 2.357 2.357 0 0 1 27.882 1.854 A 2.848 2.848 0 0 1 27.861 1.908 A 5.162 5.162 0 0 1 27.837 2.01 Q 27.801 2.149 27.774 2.215 A 4.027 4.027 0 0 0 27.751 2.284 A 4.489 4.489 0 0 0 27.744 2.307 A 5.045 5.045 0 0 0 27.719 2.394 A 5.585 5.585 0 0 0 27.715 2.406 A 2.168 2.168 0 0 0 27.68 2.45 Q 27.617 2.53 27.613 2.557 A 0.022 0.022 0 0 0 27.612 2.56 A 0.098 0.098 0 0 1 27.611 2.574 Q 27.609 2.589 27.603 2.611 A 0.528 0.528 0 0 1 27.598 2.626 A 1.138 1.138 0 0 0 27.576 2.673 A 1.503 1.503 0 0 0 27.554 2.725 A 1.438 1.438 0 0 1 27.518 2.806 A 1.673 1.673 0 0 1 27.502 2.838 A 2.337 2.337 0 0 0 27.475 2.895 A 1.836 1.836 0 0 0 27.451 2.948 A 0.917 0.917 0 0 1 27.432 2.99 Q 27.423 3.009 27.413 3.026 A 0.514 0.514 0 0 1 27.407 3.036 A 7.931 7.931 0 0 0 27.637 3.07 Q 27.751 3.084 27.851 3.093 A 4.106 4.106 0 0 0 27.968 3.102 Q 28.206 3.117 28.491 3.066 Z M 38.005 9.167 L 37.91 9.189 Q 37.843 9.245 37.793 9.292 A 1.508 1.508 0 0 0 37.764 9.32 L 37.632 9.452 A 2.49 2.49 0 0 0 37.581 9.504 Q 37.534 9.554 37.506 9.591 A 0.402 0.402 0 0 0 37.485 9.621 A 0.163 0.163 0 0 1 37.464 9.649 Q 37.427 9.69 37.343 9.747 A 1.765 1.765 0 0 1 37.324 9.76 L 37.031 9.936 A 2.96 2.96 0 0 0 36.724 10.114 A 3.421 3.421 0 0 0 36.621 10.185 L 36.211 10.478 A 2.151 2.151 0 0 1 36.07 10.556 A 2.789 2.789 0 0 1 35.911 10.631 A 1.776 1.776 0 0 0 35.633 10.78 A 1.64 1.64 0 0 0 35.625 10.785 A 0.944 0.944 0 0 1 35.602 10.785 Q 35.568 10.784 35.553 10.781 A 0.038 0.038 0 0 1 35.544 10.778 Q 35.522 10.763 35.464 10.8 A 0.196 0.196 0 0 0 35.418 10.783 Q 35.372 10.773 35.326 10.79 A 0.198 0.198 0 0 0 35.317 10.793 A 0.247 0.247 0 0 1 35.279 10.806 Q 35.221 10.822 35.171 10.8 Q 35.105 10.747 35.06 10.713 A 4.416 4.416 0 0 0 35.05 10.705 Q 35.002 10.668 34.973 10.653 A 0.37 0.37 0 0 1 34.904 10.594 A 0.425 0.425 0 0 1 34.893 10.58 A 0.332 0.332 0 0 1 34.87 10.47 Q 34.869 10.462 34.869 10.454 A 0.416 0.416 0 0 1 34.871 10.419 A 0.297 0.297 0 0 0 34.872 10.396 Q 34.872 10.323 34.834 10.273 A 8.527 8.527 0 0 1 34.846 9.806 A 7.419 7.419 0 0 1 34.856 9.657 A 3.967 3.967 0 0 1 34.91 9.246 A 4.739 4.739 0 0 1 34.951 9.042 Q 34.965 8.948 35.015 8.726 A 14.087 14.087 0 0 1 35.024 8.687 A 7.053 7.053 0 0 0 35.1 8.318 A 6.166 6.166 0 0 0 35.12 8.2 Q 35.152 7.992 35.11 7.94 A 0.049 0.049 0 0 0 35.098 7.929 Q 34.959 8.005 34.814 8.146 A 2.015 2.015 0 0 0 34.768 8.192 Q 34.687 8.28 34.607 8.354 A 3.603 3.603 0 0 1 34.528 8.423 A 2.882 2.882 0 0 1 34.453 8.485 L 34.226 8.647 A 6.838 6.838 0 0 1 34.173 8.684 A 8.191 8.191 0 0 1 34.116 8.723 Q 34.058 8.764 33.999 8.808 A 1.615 1.615 0 0 0 33.904 8.881 A 1.203 1.203 0 0 0 33.823 8.954 Q 33.75 9.027 33.662 9.13 L 33.563 9.229 A 1.755 1.755 0 0 0 33.472 9.328 Q 33.384 9.423 33.267 9.511 A 1.637 1.637 0 0 1 33.232 9.544 Q 33.184 9.59 33.157 9.606 Q 33.126 9.624 33.081 9.668 A 1.165 1.165 0 0 0 33.062 9.687 L 32.922 9.826 A 0.475 0.475 0 0 1 32.832 9.896 A 0.629 0.629 0 0 1 32.754 9.936 A 5.759 5.759 0 0 1 32.23 10.544 A 3.223 3.223 0 0 0 31.971 10.838 A 2.459 2.459 0 0 0 31.772 11.137 A 2.413 2.413 0 0 1 31.399 11.393 A 0.491 0.491 0 0 1 31.171 11.454 Q 31.056 11.457 30.923 11.415 A 1.668 1.668 0 0 1 30.856 11.373 Q 30.765 11.313 30.732 11.269 Q 30.688 11.217 30.63 11.181 A 35.598 35.598 0 0 1 30.652 10.947 A 30.851 30.851 0 0 1 30.659 10.873 A 0.871 0.871 0 0 1 30.694 10.704 A 1.156 1.156 0 0 1 30.747 10.566 L 30.835 10.419 A 0.7 0.7 0 0 0 30.906 10.246 A 0.908 0.908 0 0 0 30.93 10.126 A 0.955 0.955 0 0 1 30.966 9.956 A 0.747 0.747 0 0 1 31.025 9.818 A 1.569 1.569 0 0 0 31.072 9.736 Q 31.114 9.654 31.131 9.592 A 0.392 0.392 0 0 0 31.135 9.577 A 0.71 0.71 0 0 1 31.201 9.408 A 0.722 0.722 0 0 1 31.23 9.348 Q 31.254 9.301 31.282 9.269 Q 31.316 9.229 31.346 9.167 A 0.779 0.779 0 0 0 31.362 9.13 A 0.779 0.779 0 0 1 31.406 9.048 Q 31.432 9.005 31.465 8.962 Q 31.531 8.874 31.567 8.793 A 4.528 4.528 0 0 1 31.731 8.315 A 5.257 5.257 0 0 1 31.802 8.149 A 10.351 10.351 0 0 1 31.853 7.975 A 9.34 9.34 0 0 1 31.86 7.951 Q 31.89 7.856 31.934 7.768 L 32.007 7.607 A 4.743 4.743 0 0 1 32.062 7.49 A 4.22 4.22 0 0 1 32.08 7.453 A 9.764 9.764 0 0 1 32.153 7.295 A 9.764 9.764 0 0 0 32.227 7.138 A 5.035 5.035 0 0 1 32.264 7.065 Q 32.281 7.032 32.297 7.003 A 2.838 2.838 0 0 1 32.307 6.984 Q 32.343 6.919 32.401 6.847 A 1.521 1.521 0 0 1 32.402 6.845 L 32.446 6.772 A 0.525 0.525 0 0 0 32.477 6.713 A 0.467 0.467 0 0 0 32.483 6.698 A 0.501 0.501 0 0 1 32.512 6.639 A 0.566 0.566 0 0 1 32.52 6.625 L 32.563 6.552 A 2.101 2.101 0 0 0 32.596 6.495 A 2.34 2.34 0 0 0 32.607 6.475 A 0.41 0.41 0 0 0 32.631 6.422 A 0.515 0.515 0 0 0 32.644 6.383 A 0.433 0.433 0 0 1 32.697 6.273 A 0.576 0.576 0 0 1 32.754 6.2 A 1.832 1.832 0 0 0 32.814 6.128 A 1.498 1.498 0 0 0 32.845 6.087 A 1.224 1.224 0 0 0 32.889 6.023 A 0.987 0.987 0 0 0 32.915 5.981 A 0.235 0.235 0 0 1 33.002 5.891 Q 33.036 5.87 33.08 5.856 A 0.489 0.489 0 0 1 33.105 5.849 A 0.214 0.214 0 0 0 33.175 5.869 Q 33.256 5.877 33.341 5.819 A 0.443 0.443 0 0 0 33.365 5.801 Q 33.501 5.695 33.589 5.819 A 4.297 4.297 0 0 1 33.683 5.882 Q 33.768 5.939 33.82 5.982 A 0.663 0.663 0 0 1 33.867 6.024 A 0.59 0.59 0 0 1 33.923 6.082 Q 33.95 6.115 33.967 6.147 A 0.293 0.293 0 0 1 33.984 6.186 Q 34.05 6.304 34.01 6.428 A 0.363 0.363 0 0 1 33.999 6.457 A 0.516 0.516 0 0 1 33.884 6.624 A 0.692 0.692 0 0 1 33.794 6.698 A 1.291 1.291 0 0 1 33.711 6.944 A 1.774 1.774 0 0 1 33.589 7.167 A 7.921 7.921 0 0 0 33.452 7.38 A 5.98 5.98 0 0 0 33.45 7.383 A 6.709 6.709 0 0 0 33.329 7.585 A 6.117 6.117 0 0 0 33.325 7.592 L 33.208 7.885 A 15.084 15.084 0 0 1 33.025 8.295 Q 32.93 8.5 32.812 8.691 A 4.39 4.39 0 0 1 32.773 8.77 Q 32.719 8.878 32.684 8.928 A 0.32 0.32 0 0 1 32.67 8.947 Q 32.622 9.005 32.589 9.06 A 0.449 0.449 0 0 0 32.572 9.092 Q 32.546 9.144 32.503 9.25 A 7.483 7.483 0 0 0 32.476 9.32 Q 32.593 9.247 32.666 9.13 A 1.667 1.667 0 0 1 32.741 9.02 A 1.834 1.834 0 0 1 32.747 9.013 A 1.983 1.983 0 0 1 32.829 8.91 A 2.175 2.175 0 0 1 32.842 8.896 A 2.143 2.143 0 0 1 33.117 8.628 A 1.866 1.866 0 0 1 33.252 8.529 Q 33.354 8.376 33.508 8.302 A 0.575 0.575 0 0 0 33.746 8.068 A 0.697 0.697 0 0 0 33.75 8.061 A 0.319 0.319 0 0 0 33.764 8.04 Q 33.779 8.017 33.796 7.984 A 1.223 1.223 0 0 0 33.801 7.973 A 1.102 1.102 0 0 1 33.815 7.945 Q 33.831 7.916 33.845 7.896 A 0.278 0.278 0 0 1 33.853 7.885 A 3.527 3.527 0 0 1 34.18 7.49 A 2.822 2.822 0 0 1 34.453 7.24 L 34.541 7.167 A 1.255 1.255 0 0 0 34.6 7.114 A 1.081 1.081 0 0 0 34.622 7.094 A 0.55 0.55 0 0 1 34.661 7.059 Q 34.706 7.022 34.775 6.976 A 2.603 2.603 0 0 1 34.819 6.947 Q 34.885 6.911 34.951 6.863 Q 35.017 6.816 35.076 6.757 A 0.764 0.764 0 0 1 35.347 6.581 A 0.996 0.996 0 0 1 35.507 6.523 A 0.903 0.903 0 0 1 35.537 6.515 A 1.002 1.002 0 0 1 35.629 6.49 A 1.923 1.923 0 0 0 35.702 6.471 A 2.19 2.19 0 0 0 35.728 6.464 A 19.516 19.516 0 0 1 35.813 6.44 Q 35.852 6.429 35.888 6.419 A 11.555 11.555 0 0 1 35.911 6.413 A 0.273 0.273 0 0 1 35.974 6.403 Q 36.007 6.402 36.044 6.409 A 0.465 0.465 0 0 1 36.094 6.42 Q 36.328 6.515 36.445 6.816 A 0.179 0.179 0 0 1 36.455 6.852 Q 36.473 6.955 36.421 7.184 A 3.208 3.208 0 0 1 36.398 7.277 A 11.488 11.488 0 0 1 36.242 7.819 A 13.127 13.127 0 0 1 36.182 8.006 A 16.861 16.861 0 0 0 36.124 8.184 Q 36.044 8.434 36.006 8.588 A 1.173 1.173 0 0 0 35.998 8.618 Q 35.979 8.7 35.991 8.712 A 0.049 0.049 0 0 1 36.006 8.748 A 0.065 0.065 0 0 1 36.006 8.749 Q 35.977 8.822 35.962 8.881 A 2.437 2.437 0 0 0 35.947 8.943 A 3.349 3.349 0 0 0 35.933 9.013 A 1.141 1.141 0 0 0 35.916 9.094 Q 35.9 9.185 35.89 9.31 A 3.732 3.732 0 0 0 35.889 9.328 A 1.865 1.865 0 0 0 35.885 9.391 Q 35.88 9.519 35.896 9.607 A 0.529 0.529 0 0 0 35.903 9.643 Q 36.047 9.635 36.071 9.614 A 0.021 0.021 0 0 0 36.072 9.613 A 0.049 0.049 0 0 1 36.107 9.599 A 0.065 0.065 0 0 1 36.108 9.599 A 0.386 0.386 0 0 1 36.136 9.593 Q 36.169 9.587 36.193 9.59 A 0.119 0.119 0 0 1 36.204 9.591 A 0.125 0.125 0 0 0 36.22 9.594 Q 36.252 9.596 36.299 9.584 Q 36.599 9.504 36.841 9.262 A 8.618 8.618 0 0 0 37.032 9.174 A 7.735 7.735 0 0 0 37.094 9.145 A 6.922 6.922 0 0 0 37.269 9.057 A 6.173 6.173 0 0 0 37.324 9.027 Q 37.493 8.907 37.608 8.841 A 1.442 1.442 0 0 1 37.654 8.815 A 4.284 4.284 0 0 1 37.724 8.779 Q 37.804 8.738 37.917 8.684 A 19.14 19.14 0 0 1 38.027 8.632 A 0.646 0.646 0 0 1 38.155 8.52 A 0.88 0.88 0 0 1 38.284 8.449 A 1.155 1.155 0 0 0 38.481 8.335 A 1.405 1.405 0 0 0 38.569 8.266 A 1.291 1.291 0 0 0 38.6 8.234 Q 38.624 8.208 38.643 8.185 Q 38.687 8.127 38.73 8.163 A 0.431 0.431 0 0 1 38.783 8.226 Q 38.812 8.269 38.825 8.314 A 0.271 0.271 0 0 1 38.826 8.317 Q 38.846 8.391 38.835 8.422 A 0.043 0.043 0 0 1 38.833 8.427 Q 38.723 8.537 38.708 8.603 Q 38.697 8.653 38.682 8.678 A 0.072 0.072 0 0 1 38.672 8.691 A 0.436 0.436 0 0 1 38.607 8.743 Q 38.571 8.767 38.527 8.789 A 1.032 1.032 0 0 1 38.452 8.822 A 0.977 0.977 0 0 0 38.402 8.844 Q 38.321 8.883 38.298 8.918 A 0.745 0.745 0 0 1 38.281 8.943 Q 38.262 8.968 38.247 8.983 Q 38.214 9.016 38.186 9.037 A 0.283 0.283 0 0 1 38.167 9.049 Q 38.139 9.066 38.108 9.094 A 0.656 0.656 0 0 0 38.086 9.115 A 0.118 0.118 0 0 1 38.051 9.15 A 0.114 0.114 0 0 1 38.005 9.167 Z M 20.054 11.444 L 19.951 11.364 Q 19.922 11.342 19.849 11.298 A 1.021 1.021 0 0 0 19.658 11.116 A 0.952 0.952 0 0 0 19.636 11.1 A 0.66 0.66 0 0 1 19.545 11.02 Q 19.504 10.978 19.465 10.925 A 1.235 1.235 0 0 1 19.438 10.888 A 0.875 0.875 0 0 1 19.346 10.725 A 0.703 0.703 0 0 1 19.299 10.573 Q 19.27 10.404 19.189 10.243 Q 19.155 9.883 19.238 9.641 A 0.855 0.855 0 0 1 19.248 9.613 A 5.116 5.116 0 0 1 19.366 9.287 A 4.383 4.383 0 0 1 19.424 9.148 A 3.014 3.014 0 0 1 19.586 8.831 A 2.67 2.67 0 0 1 19.636 8.749 A 2.075 2.075 0 0 0 19.866 8.258 A 2.68 2.68 0 0 0 19.951 7.914 A 1.011 1.011 0 0 1 19.872 7.825 Q 19.788 7.719 19.77 7.623 A 0.301 0.301 0 0 1 19.768 7.614 A 1.07 1.07 0 0 0 19.759 7.546 Q 19.753 7.511 19.745 7.472 A 1.941 1.941 0 0 0 19.739 7.445 A 42.413 42.413 0 0 0 19.718 7.356 Q 19.708 7.311 19.696 7.26 A 74.203 74.203 0 0 0 19.688 7.226 A 3.161 3.161 0 0 0 19.128 7.695 A 3.682 3.682 0 0 0 18.984 7.856 Q 18.662 8.236 18.413 8.632 L 18.237 8.954 Q 18.164 9.093 18.062 9.218 A 1.075 1.075 0 0 0 18.037 9.244 Q 17.989 9.294 17.988 9.312 Q 17.988 9.332 17.966 9.357 A 0.197 0.197 0 0 1 17.959 9.364 Q 17.902 9.436 17.866 9.486 A 1.586 1.586 0 0 0 17.864 9.489 A 1.287 1.287 0 0 0 17.847 9.513 Q 17.823 9.547 17.812 9.569 Q 17.798 9.599 17.783 9.624 A 0.857 0.857 0 0 1 17.763 9.658 A 0.725 0.725 0 0 1 17.754 9.672 A 1.545 1.545 0 0 1 17.733 9.699 Q 17.703 9.738 17.681 9.76 Q 17.651 9.789 17.607 9.848 A 25.479 25.479 0 0 0 17.411 10.132 A 20.246 20.246 0 0 0 17.234 10.397 L 16.89 10.917 Q 16.809 11.042 16.758 11.166 Q 16.707 11.298 16.611 11.4 A 0.647 0.647 0 0 1 16.59 11.402 Q 16.489 11.409 16.455 11.376 A 0.053 0.053 0 0 1 16.443 11.357 A 0.158 0.158 0 0 1 16.436 11.334 Q 16.433 11.321 16.433 11.309 A 0.097 0.097 0 0 1 16.45 11.254 Q 16.32 11.167 16.274 10.961 A 1.063 1.063 0 0 1 16.252 10.8 Q 16.234 10.521 16.291 10.332 A 0.715 0.715 0 0 1 16.318 10.258 Q 16.274 10.126 16.289 10.111 A 0.046 0.046 0 0 0 16.3 10.093 Q 16.302 10.086 16.303 10.077 A 0.103 0.103 0 0 0 16.304 10.067 Q 16.494 9.804 16.692 9.54 Q 16.89 9.276 17.109 9.042 L 17.183 8.94 A 1.221 1.221 0 0 0 17.241 8.85 A 1.11 1.11 0 0 0 17.249 8.837 A 1.372 1.372 0 0 1 17.333 8.723 A 1.099 1.099 0 0 1 17.402 8.647 A 3.783 3.783 0 0 1 17.568 8.389 A 4.764 4.764 0 0 1 17.703 8.207 Q 17.878 7.987 17.988 7.753 Q 18.055 7.686 18.087 7.62 A 0.323 0.323 0 0 0 18.098 7.592 A 0.315 0.315 0 0 1 18.193 7.467 A 0.396 0.396 0 0 1 18.223 7.445 A 2.459 2.459 0 0 0 18.293 7.316 A 2.161 2.161 0 0 0 18.314 7.273 A 1.9 1.9 0 0 0 18.368 7.149 A 1.671 1.671 0 0 0 18.384 7.108 A 0.704 0.704 0 0 1 18.451 6.961 Q 18.488 6.899 18.538 6.838 A 1.162 1.162 0 0 1 18.545 6.83 A 0.72 0.72 0 0 1 18.567 6.765 Q 18.579 6.733 18.594 6.706 A 0.33 0.33 0 0 1 18.618 6.669 Q 18.652 6.624 18.703 6.571 A 1.861 1.861 0 0 1 18.735 6.537 A 0.147 0.147 0 0 1 18.759 6.473 Q 18.772 6.453 18.793 6.433 A 0.33 0.33 0 0 1 18.816 6.413 Q 18.889 6.354 18.926 6.288 A 0.757 0.757 0 0 1 18.944 6.243 Q 18.971 6.179 18.999 6.156 A 0.119 0.119 0 0 0 19.041 6.079 A 0.174 0.174 0 0 0 19.043 6.054 Q 19.116 5.981 19.189 5.9 A 0.771 0.771 0 0 0 19.267 5.799 A 1.022 1.022 0 0 0 19.321 5.702 A 2.193 2.193 0 0 1 19.405 5.657 Q 19.526 5.594 19.59 5.586 A 0.139 0.139 0 0 1 19.607 5.585 A 0.14 0.14 0 0 0 19.673 5.569 Q 19.701 5.555 19.722 5.526 A 0.195 0.195 0 0 0 19.731 5.512 L 19.86 5.512 A 1.518 1.518 0 0 0 19.946 5.509 A 1.902 1.902 0 0 0 20.01 5.504 A 0.416 0.416 0 0 1 20.03 5.503 Q 20.166 5.498 20.183 5.595 A 0.163 0.163 0 0 1 20.186 5.614 Q 20.191 5.636 20.188 5.667 A 0.284 0.284 0 0 1 20.186 5.687 L 20.171 5.732 L 20.156 5.775 A 3.78 3.78 0 0 1 20.158 5.806 Q 20.162 5.892 20.158 5.91 A 0.01 0.01 0 0 1 20.156 5.915 A 0.129 0.129 0 0 0 20.151 5.921 Q 20.142 5.931 20.142 5.937 Q 20.128 5.991 20.133 6.033 A 0.169 0.169 0 0 0 20.134 6.039 Q 20.142 6.076 20.142 6.171 A 3.33 3.33 0 0 1 20.136 6.213 Q 20.134 6.229 20.132 6.245 A 1.911 1.911 0 0 1 20.127 6.274 A 2.911 2.911 0 0 1 20.12 6.316 A 2.235 2.235 0 0 1 20.112 6.354 Q 20.101 6.41 20.141 6.478 A 0.413 0.413 0 0 0 20.171 6.523 Q 20.208 6.574 20.259 6.603 A 0.268 0.268 0 0 1 20.3 6.633 Q 20.319 6.649 20.338 6.671 A 0.552 0.552 0 0 1 20.361 6.698 A 0.2 0.2 0 0 1 20.413 6.786 A 0.2 0.2 0 0 0 20.464 6.874 A 0.24 0.24 0 0 0 20.49 6.902 Q 20.504 6.914 20.522 6.927 A 0.529 0.529 0 0 0 20.552 6.947 A 0.226 0.226 0 0 1 20.64 7.05 A 0.538 0.538 0 0 1 20.659 7.065 Q 20.713 7.108 20.693 7.122 A 0.02 0.02 0 0 1 20.691 7.123 A 0.011 0.011 0 0 0 20.688 7.126 A 0.007 0.007 0 0 0 20.687 7.13 Q 20.687 7.145 20.743 7.175 A 0.731 0.731 0 0 0 20.757 7.182 A 1.503 1.503 0 0 1 20.979 7.561 A 1.403 1.403 0 0 1 21.006 7.636 A 9.436 9.436 0 0 0 21.052 7.723 Q 21.108 7.829 21.153 7.905 A 2.874 2.874 0 0 0 21.167 7.929 A 0.258 0.258 0 0 1 21.193 7.982 Q 21.217 8.052 21.188 8.123 A 0.268 0.268 0 0 1 21.167 8.163 A 0.232 0.232 0 0 0 21.143 8.193 Q 21.107 8.242 21.064 8.339 Q 20.999 8.405 20.947 8.485 A 0.431 0.431 0 0 0 20.903 8.595 A 0.183 0.183 0 0 1 20.872 8.674 A 0.226 0.226 0 0 1 20.859 8.691 A 3.751 3.751 0 0 1 20.693 8.937 A 3.064 3.064 0 0 1 20.588 9.071 A 2.067 2.067 0 0 0 20.347 9.438 Q 20.354 9.828 20.488 10.026 A 0.518 0.518 0 0 0 20.508 10.053 A 3.396 3.396 0 0 0 20.567 10.12 Q 20.691 10.258 20.728 10.258 Q 20.811 10.271 20.906 10.216 A 0.494 0.494 0 0 0 20.933 10.199 L 21.123 10.082 Q 21.152 10.067 21.178 10.053 A 0.857 0.857 0 0 0 21.211 10.033 A 0.725 0.725 0 0 0 21.226 10.024 A 0.305 0.305 0 0 1 21.291 9.991 A 0.378 0.378 0 0 1 21.328 9.98 A 3.857 3.857 0 0 1 21.357 9.97 Q 21.472 9.933 21.475 9.941 A 0.003 0.003 0 0 1 21.475 9.943 A 0.043 0.043 0 0 0 21.474 9.947 A 0.03 0.03 0 0 0 21.473 9.95 A 0.022 0.022 0 0 0 21.473 9.953 Q 21.473 9.963 21.486 9.965 A 0.037 0.037 0 0 0 21.489 9.965 A 2.437 2.437 0 0 1 21.517 9.928 Q 21.542 9.895 21.56 9.874 A 0.367 0.367 0 0 1 21.577 9.856 A 0.386 0.386 0 0 1 21.632 9.81 A 0.474 0.474 0 0 1 21.665 9.789 A 1.831 1.831 0 0 1 21.884 9.432 A 1.479 1.479 0 0 1 22.145 9.174 Q 22.441 8.947 22.778 8.661 A 0.169 0.169 0 0 0 22.901 8.612 A 0.196 0.196 0 0 0 22.903 8.61 A 0.358 0.358 0 0 1 23.005 8.539 A 0.421 0.421 0 0 1 23.027 8.529 A 1.469 1.469 0 0 1 23.108 8.46 Q 23.147 8.429 23.185 8.404 A 0.898 0.898 0 0 1 23.196 8.398 A 0.356 0.356 0 0 0 23.294 8.298 A 0.418 0.418 0 0 0 23.306 8.28 A 1.2 1.2 0 0 0 23.574 8.103 A 1.378 1.378 0 0 0 23.621 8.061 A 4.564 4.564 0 0 1 23.81 7.898 A 3.783 3.783 0 0 1 23.921 7.812 A 0.328 0.328 0 0 1 24.001 7.802 Q 24.05 7.802 24.102 7.816 A 0.493 0.493 0 0 1 24.17 7.841 A 0.435 0.435 0 0 1 24.217 8.038 A 0.472 0.472 0 0 1 24.214 8.09 A 0.203 0.203 0 0 1 24.198 8.152 Q 24.171 8.212 24.101 8.23 A 0.232 0.232 0 0 1 24.067 8.236 A 1.638 1.638 0 0 1 23.997 8.302 A 1.854 1.854 0 0 1 23.972 8.324 A 0.26 0.26 0 0 1 23.874 8.376 A 0.319 0.319 0 0 1 23.848 8.383 A 0.453 0.453 0 0 0 23.777 8.403 Q 23.74 8.417 23.713 8.436 A 0.175 0.175 0 0 0 23.657 8.5 Q 23.651 8.614 23.631 8.654 A 0.057 0.057 0 0 1 23.621 8.669 A 0.267 0.267 0 0 0 23.606 8.684 Q 23.592 8.701 23.586 8.715 A 0.064 0.064 0 0 0 23.584 8.72 A 2.461 2.461 0 0 1 23.374 9.022 A 2.031 2.031 0 0 1 23.225 9.185 A 2.334 2.334 0 0 0 23.01 9.43 A 3.031 3.031 0 0 0 22.852 9.657 Q 22.776 9.706 22.726 9.806 A 0.557 0.557 0 0 0 22.72 9.818 A 14.982 14.982 0 0 0 22.597 9.888 Q 22.425 9.985 22.332 10.046 A 1.083 1.083 0 0 0 22.104 10.243 A 0.505 0.505 0 0 0 22.072 10.263 Q 22.026 10.295 22.018 10.321 A 0.035 0.035 0 0 0 22.017 10.331 Q 22.017 10.36 21.987 10.39 Q 21.856 10.501 21.825 10.56 A 0.109 0.109 0 0 0 21.819 10.573 Q 21.797 10.631 21.753 10.668 A 1.84 1.84 0 0 0 21.684 10.718 A 1.35 1.35 0 0 0 21.625 10.767 Q 21.583 10.803 21.551 10.833 A 1.188 1.188 0 0 0 21.533 10.851 A 0.57 0.57 0 0 1 21.436 10.93 A 0.466 0.466 0 0 1 21.343 10.976 A 1.65 1.65 0 0 1 21.254 11.044 Q 21.158 11.112 21.022 11.194 A 5.927 5.927 0 0 1 20.977 11.221 A 2.245 2.245 0 0 1 20.479 11.441 A 1.032 1.032 0 0 1 20.37 11.467 Q 20.185 11.502 20.054 11.444 Z M 15.63 7.05 L 15.615 7.167 A 0.093 0.093 0 0 1 15.618 7.183 Q 15.624 7.236 15.586 7.343 A 0.409 0.409 0 0 0 15.523 7.445 A 0.353 0.353 0 0 0 15.498 7.533 L 15.447 7.636 Q 15.432 7.666 15.42 7.71 A 0.722 0.722 0 0 0 15.41 7.753 Q 15.381 7.841 15.388 7.958 A 0.617 0.617 0 0 1 15.393 8.035 A 0.556 0.556 0 0 1 15.392 8.072 A 1.434 1.434 0 0 1 15.383 8.165 A 1.31 1.31 0 0 1 15.381 8.178 Q 15.352 8.339 15.337 8.493 Q 15.322 8.647 15.308 8.808 A 2.112 2.112 0 0 1 15.302 8.957 Q 15.295 9.059 15.278 9.174 A 11.863 11.863 0 0 1 15.251 9.357 Q 15.237 9.442 15.224 9.519 A 6.998 6.998 0 0 1 15.22 9.54 A 0.685 0.685 0 0 1 15.263 9.632 Q 15.289 9.699 15.293 9.76 A 0.256 0.256 0 0 0 15.363 9.919 A 0.354 0.354 0 0 0 15.396 9.95 Q 15.604 9.919 15.753 9.862 A 0.942 0.942 0 0 0 15.864 9.811 A 1.168 1.168 0 0 0 16.063 9.674 A 1.533 1.533 0 0 0 16.201 9.54 A 1.31 1.31 0 0 0 16.276 9.505 Q 16.341 9.471 16.384 9.438 Q 16.443 9.386 16.553 9.32 L 16.67 9.203 Q 16.846 9.108 16.868 9.086 A 0.136 0.136 0 0 1 16.88 9.075 Q 16.887 9.069 16.896 9.064 A 0.284 0.284 0 0 1 16.908 9.057 A 1.071 1.071 0 0 1 16.945 9.037 A 1.25 1.25 0 0 1 16.963 9.027 A 1.935 1.935 0 0 0 17.14 8.899 Q 17.225 8.829 17.289 8.757 A 1.018 1.018 0 0 0 17.344 8.691 A 1.204 1.204 0 0 0 17.454 8.591 A 0.949 0.949 0 0 0 17.527 8.507 Q 17.579 8.436 17.718 8.37 A 1.223 1.223 0 0 1 17.754 8.354 A 1.021 1.021 0 0 1 17.945 8.171 A 0.952 0.952 0 0 1 17.966 8.156 A 1.007 1.007 0 0 0 18.167 7.973 A 1.126 1.126 0 0 0 18.179 7.958 A 0.351 0.351 0 0 1 18.22 7.96 Q 18.263 7.966 18.289 7.983 A 0.092 0.092 0 0 1 18.296 7.987 A 0.772 0.772 0 0 0 18.328 8.008 A 0.912 0.912 0 0 0 18.344 8.017 A 1.071 1.071 0 0 0 18.38 8.037 A 1.25 1.25 0 0 0 18.398 8.046 A 0.405 0.405 0 0 1 18.425 8.189 A 0.429 0.429 0 0 1 18.413 8.288 A 0.638 0.638 0 0 1 18.311 8.515 A 1.674 1.674 0 0 0 18.286 8.548 Q 18.24 8.61 18.237 8.63 A 0.017 0.017 0 0 0 18.237 8.632 A 0.033 0.033 0 0 1 18.234 8.647 Q 18.231 8.651 18.227 8.656 A 0.073 0.073 0 0 1 18.223 8.661 A 0.924 0.924 0 0 1 18.18 8.707 Q 18.157 8.73 18.131 8.755 A 1.62 1.62 0 0 1 18.113 8.771 A 0.635 0.635 0 0 0 18.042 8.835 A 0.522 0.522 0 0 0 18.003 8.881 Q 17.945 8.985 17.906 9.007 A 0.041 0.041 0 0 1 17.886 9.013 A 0.108 0.108 0 0 0 17.847 9.019 A 0.097 0.097 0 0 0 17.812 9.042 Q 17.681 9.123 17.629 9.159 Q 17.571 9.211 17.461 9.276 Q 17.307 9.357 17.271 9.394 A 0.41 0.41 0 0 1 17.253 9.41 Q 17.228 9.432 17.212 9.438 Q 17.038 9.634 16.87 9.765 A 1.85 1.85 0 0 1 16.868 9.767 A 1.486 1.486 0 0 0 16.749 9.868 Q 16.687 9.927 16.621 10.001 A 3.094 3.094 0 0 0 16.538 10.097 L 16.421 10.185 A 0.37 0.37 0 0 0 16.353 10.251 A 0.472 0.472 0 0 0 16.318 10.302 A 1.494 1.494 0 0 0 16.22 10.373 Q 16.171 10.412 16.133 10.45 A 0.806 0.806 0 0 0 16.106 10.478 Q 16.037 10.553 15.951 10.65 A 16.834 16.834 0 0 0 15.923 10.683 Q 15.835 10.727 15.732 10.807 A 1.767 1.767 0 0 1 15.647 10.869 Q 15.574 10.918 15.513 10.946 Q 15.479 10.967 15.402 11.005 A 5.534 5.534 0 0 1 15.388 11.012 Q 15.315 11.049 15.249 11.049 A 0.645 0.645 0 0 1 15.138 11.059 A 0.59 0.59 0 0 1 14.927 11.02 Q 14.788 10.968 14.648 10.932 Q 14.59 10.844 14.502 10.785 A 0.975 0.975 0 0 1 14.334 10.478 A 1.156 1.156 0 0 1 14.312 10.404 A 15.019 15.019 0 0 1 14.253 10.177 A 17.919 17.919 0 0 1 14.194 9.936 Q 14.062 10.024 13.975 10.126 Q 13.887 10.236 13.711 10.317 Q 13.564 10.456 13.411 10.591 A 4.832 4.832 0 0 1 13.088 10.851 A 21.424 21.424 0 0 0 12.78 11.094 A 23.353 23.353 0 0 0 12.759 11.111 A 33.285 33.285 0 0 0 12.422 11.386 Q 12.309 11.499 12.264 11.476 A 0.034 0.034 0 0 1 12.261 11.474 A 0.303 0.303 0 0 1 12.11 11.572 Q 11.988 11.609 11.804 11.578 A 1.269 1.269 0 0 1 11.792 11.576 A 1.501 1.501 0 0 0 11.643 11.512 A 1.895 1.895 0 0 0 11.528 11.474 A 1.393 1.393 0 0 1 11.437 11.444 Q 11.389 11.426 11.336 11.404 A 2.618 2.618 0 0 1 11.294 11.386 A 0.741 0.741 0 0 1 10.876 11.166 A 1.638 1.638 0 0 1 10.621 10.814 A 1.867 1.867 0 0 1 10.591 10.756 A 2.728 2.728 0 0 1 10.561 10.667 Q 10.547 10.622 10.536 10.582 A 1.45 1.45 0 0 1 10.525 10.536 A 0.986 0.986 0 0 0 10.514 10.476 A 1.241 1.241 0 0 0 10.503 10.426 Q 10.488 10.368 10.474 10.302 Q 10.469 10.216 10.45 10.155 A 0.331 0.331 0 0 0 10.43 10.104 A 0.245 0.245 0 0 1 10.417 10.054 Q 10.415 10.04 10.415 10.025 A 0.2 0.2 0 0 1 10.43 9.95 Q 10.405 9.919 10.412 9.872 A 0.174 0.174 0 0 1 10.415 9.855 A 1.269 1.269 0 0 0 10.421 9.821 Q 10.427 9.786 10.429 9.762 A 0.246 0.246 0 0 0 10.43 9.745 Q 10.415 9.54 10.466 9.306 A 2.243 2.243 0 0 1 10.54 9.043 A 1.834 1.834 0 0 1 10.605 8.881 A 0.672 0.672 0 0 1 10.66 8.803 A 0.9 0.9 0 0 1 10.723 8.734 Q 10.759 8.691 10.767 8.647 Q 10.773 8.616 10.799 8.586 A 0.234 0.234 0 0 1 10.811 8.573 A 0.669 0.669 0 0 1 10.856 8.524 A 0.858 0.858 0 0 1 10.898 8.485 Q 10.972 8.427 11.001 8.398 A 1.527 1.527 0 0 1 11.078 8.299 A 0.5 0.5 0 0 1 11.169 8.214 A 0.755 0.755 0 0 0 11.265 8.134 L 11.353 8.046 Q 11.404 7.995 11.433 7.943 A 0.21 0.21 0 0 1 11.51 7.871 A 0.276 0.276 0 0 1 11.543 7.856 A 0.776 0.776 0 0 1 11.605 7.762 A 0.589 0.589 0 0 1 11.675 7.687 A 5.015 5.015 0 0 1 11.752 7.619 A 6.275 6.275 0 0 1 11.836 7.548 A 2.22 2.22 0 0 1 12.34 7.104 A 2.578 2.578 0 0 1 12.451 7.035 A 4.008 4.008 0 0 0 12.904 6.738 A 3.391 3.391 0 0 0 13.11 6.567 Q 13.213 6.523 13.286 6.464 L 13.433 6.347 Q 13.616 6.186 13.828 6.244 L 14.209 6.347 A 15.209 15.209 0 0 1 14.495 6.61 A 1.544 1.544 0 0 1 14.736 6.903 A 1.298 1.298 0 0 1 14.803 6.896 A 1.565 1.565 0 0 1 14.846 6.892 A 0.639 0.639 0 0 1 14.886 6.891 Q 14.927 6.891 14.971 6.896 A 0.693 0.693 0 0 0 15.047 6.9 Q 15.117 6.9 15.191 6.887 A 0.937 0.937 0 0 0 15.249 6.874 A 0.187 0.187 0 0 0 15.316 6.861 A 0.23 0.23 0 0 0 15.337 6.852 A 0.298 0.298 0 0 1 15.362 6.841 Q 15.387 6.831 15.407 6.83 A 0.081 0.081 0 0 1 15.41 6.83 A 0.591 0.591 0 0 1 15.496 6.866 Q 15.539 6.888 15.568 6.915 A 0.178 0.178 0 0 1 15.63 7.05 Z M 28.433 10.273 L 28.506 10.302 A 0.526 0.526 0 0 1 28.632 10.265 Q 28.721 10.25 28.828 10.258 Q 28.985 10.27 29.087 10.226 A 0.307 0.307 0 0 0 29.136 10.199 Q 29.209 10.141 29.238 10.111 A 0.121 0.121 0 0 1 29.266 10.09 Q 29.3 10.072 29.341 10.082 Q 29.575 9.994 29.736 9.906 A 1.529 1.529 0 0 1 30.088 9.775 A 0.569 0.569 0 0 0 30.293 9.643 A 1.637 1.637 0 0 0 30.586 9.519 A 1.317 1.317 0 0 0 30.802 9.372 A 18.385 18.385 0 0 1 31.021 9.19 A 23.123 23.123 0 0 1 31.26 8.998 A 12.867 12.867 0 0 0 31.404 8.914 Q 31.517 8.848 31.604 8.793 Q 31.734 8.711 31.883 8.591 A 4.226 4.226 0 0 0 31.904 8.573 A 0.454 0.454 0 0 1 31.925 8.532 Q 31.951 8.489 31.979 8.467 A 0.124 0.124 0 0 1 31.985 8.463 A 0.128 0.128 0 0 0 32.007 8.446 Q 32.035 8.42 32.065 8.368 A 0.506 0.506 0 0 1 32.17 8.378 Q 32.327 8.411 32.356 8.557 A 0.313 0.313 0 0 1 32.358 8.573 A 0.764 0.764 0 0 1 32.247 8.752 A 0.673 0.673 0 0 1 32.161 8.837 A 1.517 1.517 0 0 0 31.987 9.006 A 1.331 1.331 0 0 0 31.934 9.071 Q 31.816 9.145 31.743 9.203 A 0.481 0.481 0 0 0 31.688 9.255 Q 31.662 9.284 31.637 9.319 A 1.059 1.059 0 0 0 31.597 9.379 Q 31.59 9.379 31.517 9.438 A 4.336 4.336 0 0 0 31.509 9.445 A 1.668 1.668 0 0 1 31.491 9.46 Q 31.445 9.501 31.427 9.509 A 0.017 0.017 0 0 1 31.421 9.511 A 2.028 2.028 0 0 1 31.372 9.566 Q 31.299 9.647 31.255 9.674 A 0.143 0.143 0 0 1 31.245 9.679 Q 31.196 9.704 31.087 9.794 A 3.973 3.973 0 0 0 31.04 9.833 A 0.757 0.757 0 0 1 30.779 10.095 A 0.884 0.884 0 0 1 30.776 10.097 A 3.631 3.631 0 0 1 30.208 10.543 A 3.32 3.32 0 0 1 30.11 10.602 A 5.757 5.757 0 0 0 29.848 10.758 A 5.076 5.076 0 0 0 29.766 10.811 Q 29.604 10.917 29.458 11.02 A 0.723 0.723 0 0 0 29.42 11.044 Q 29.377 11.074 29.355 11.1 Q 29.326 11.137 29.253 11.195 A 0.475 0.475 0 0 1 29.199 11.232 Q 29.141 11.267 29.055 11.301 A 1.766 1.766 0 0 1 29.026 11.313 Q 28.894 11.363 28.789 11.402 A 39.03 39.03 0 0 1 28.755 11.415 Q 28.691 11.455 28.64 11.481 A 0.901 0.901 0 0 1 28.594 11.503 A 1.64 1.64 0 0 1 28.54 11.505 Q 28.347 11.507 28.214 11.46 A 0.493 0.493 0 0 1 28.096 11.4 A 26.378 26.378 0 0 1 28.006 11.352 Q 27.88 11.283 27.803 11.239 A 0.403 0.403 0 0 1 27.702 11.156 Q 27.667 11.117 27.636 11.065 A 0.721 0.721 0 0 1 27.627 11.049 A 0.35 0.35 0 0 1 27.5 10.949 Q 27.452 10.888 27.434 10.803 A 0.461 0.461 0 0 1 27.429 10.778 A 2.383 2.383 0 0 0 27.395 10.592 A 2.171 2.171 0 0 0 27.393 10.58 L 27.349 10.39 A 3.109 3.109 0 0 1 27.336 10.321 Q 27.33 10.286 27.323 10.248 A 5.291 5.291 0 0 1 27.319 10.221 Q 27.305 10.126 27.319 10.024 A 2.012 2.012 0 0 0 27.363 9.679 Q 27.371 9.518 27.437 9.364 A 0.948 0.948 0 0 0 27.509 9.112 A 1.115 1.115 0 0 0 27.517 9.042 Q 27.532 8.866 27.598 8.72 Q 27.687 8.582 27.68 8.561 A 0.006 0.006 0 0 0 27.678 8.559 A 0.008 0.008 0 0 1 27.676 8.555 Q 27.673 8.545 27.686 8.515 L 27.751 8.427 Q 27.773 8.398 27.817 8.324 L 27.905 8.105 A 1.626 1.626 0 0 1 27.959 8.011 Q 27.986 7.967 28.013 7.931 A 0.852 0.852 0 0 1 28.037 7.9 A 0.557 0.557 0 0 0 28.084 7.825 Q 28.122 7.752 28.154 7.65 A 0.905 0.905 0 0 1 28.18 7.585 Q 28.195 7.553 28.21 7.527 A 0.4 0.4 0 0 1 28.235 7.489 A 0.875 0.875 0 0 0 28.29 7.412 A 4.389 4.389 0 0 1 28.316 7.371 A 5.105 5.105 0 0 1 28.345 7.328 A 1.018 1.018 0 0 0 28.372 7.268 Q 28.386 7.234 28.401 7.195 A 2.08 2.08 0 0 0 28.418 7.145 Q 28.433 7.094 28.451 7.046 A 2.741 2.741 0 0 1 28.48 6.973 A 3.133 3.133 0 0 1 28.491 6.947 A 1.662 1.662 0 0 1 28.584 6.744 A 1.858 1.858 0 0 1 28.601 6.713 Q 28.667 6.596 28.74 6.479 A 2.201 2.201 0 0 1 28.769 6.424 Q 28.81 6.347 28.843 6.303 A 0.137 0.137 0 0 1 28.886 6.266 Q 28.934 6.239 29.019 6.23 A 0.242 0.242 0 0 1 29.071 6.224 A 0.249 0.249 0 0 1 29.15 6.237 A 0.27 0.27 0 0 0 29.192 6.245 Q 29.249 6.251 29.297 6.23 A 2.269 2.269 0 0 1 29.375 6.195 Q 29.487 6.148 29.545 6.143 A 0.153 0.153 0 0 1 29.561 6.142 Q 29.606 6.142 29.635 6.125 A 0.087 0.087 0 0 0 29.663 6.098 A 0.417 0.417 0 0 1 29.76 6.113 A 0.277 0.277 0 0 1 29.897 6.2 A 2.891 2.891 0 0 0 30.027 6.332 A 3.276 3.276 0 0 0 30.073 6.376 Q 29.985 6.801 29.875 7.028 A 14.02 14.02 0 0 1 29.714 7.351 A 16.536 16.536 0 0 1 29.634 7.504 A 2.855 2.855 0 0 0 29.551 7.645 A 3.68 3.68 0 0 0 29.487 7.768 L 29.355 8.031 A 2.501 2.501 0 0 1 29.276 8.192 A 1.917 1.917 0 0 1 29.202 8.317 A 1.355 1.355 0 0 0 29.119 8.462 A 1.032 1.032 0 0 0 29.063 8.603 L 28.997 8.742 A 4.987 4.987 0 0 0 28.976 8.783 Q 28.954 8.829 28.939 8.862 A 1.308 1.308 0 0 0 28.931 8.881 Q 28.916 8.932 28.898 8.98 Q 28.879 9.027 28.85 9.064 A 0.527 0.527 0 0 0 28.799 9.141 A 2.217 2.217 0 0 1 28.766 9.199 A 1.987 1.987 0 0 1 28.755 9.218 L 28.667 9.394 A 1.076 1.076 0 0 0 28.605 9.546 A 1.224 1.224 0 0 0 28.594 9.584 A 6.244 6.244 0 0 0 28.565 9.649 Q 28.526 9.736 28.512 9.779 A 0.347 0.347 0 0 0 28.506 9.796 A 0.379 0.379 0 0 0 28.499 9.812 A 0.501 0.501 0 0 0 28.491 9.829 A 0.501 0.501 0 0 1 28.484 9.847 A 0.379 0.379 0 0 1 28.477 9.862 A 1.137 1.137 0 0 1 28.45 9.975 Q 28.435 10.029 28.415 10.075 A 0.572 0.572 0 0 1 28.389 10.126 Q 28.333 10.223 28.422 10.268 A 0.193 0.193 0 0 0 28.433 10.273 Z M 11.733 9.394 L 11.733 9.54 A 0.417 0.417 0 0 0 11.734 9.566 Q 11.736 9.594 11.741 9.637 A 2.714 2.714 0 0 0 11.748 9.686 A 1.22 1.22 0 0 1 11.792 10.009 A 1.584 1.584 0 0 0 11.795 10.104 Q 11.798 10.147 11.802 10.194 A 3.271 3.271 0 0 0 11.814 10.295 A 0.571 0.571 0 0 0 11.83 10.376 Q 11.859 10.476 11.921 10.52 A 0.174 0.174 0 0 0 11.924 10.522 Q 12.019 10.58 12.107 10.551 Q 12.209 10.514 12.275 10.507 Q 12.788 10.111 13.242 9.679 A 5.38 5.38 0 0 0 14.048 8.705 Q 14.019 8.346 14.041 7.965 A 2.316 2.316 0 0 0 14.045 7.824 Q 14.045 7.545 13.975 7.299 A 0.173 0.173 0 0 0 13.888 7.273 Q 13.869 7.272 13.848 7.275 A 0.276 0.276 0 0 0 13.835 7.277 A 0.321 0.321 0 0 1 13.805 7.279 Q 13.76 7.281 13.703 7.271 A 0.748 0.748 0 0 1 13.696 7.27 A 3.831 3.831 0 0 0 13.06 7.653 A 3.517 3.517 0 0 0 12.979 7.716 Q 12.656 7.973 12.363 8.266 A 1.04 1.04 0 0 1 12.286 8.335 A 1.04 1.04 0 0 0 12.209 8.405 A 0.857 0.857 0 0 0 12.156 8.452 A 0.995 0.995 0 0 0 12.136 8.471 A 0.93 0.93 0 0 0 12.087 8.523 A 0.802 0.802 0 0 0 12.07 8.544 A 0.85 0.85 0 0 0 12.014 8.625 A 1.15 1.15 0 0 0 11.96 8.72 L 11.865 8.91 Q 11.851 8.94 11.836 8.965 Q 11.825 8.985 11.814 8.998 A 0.126 0.126 0 0 1 11.807 9.005 Q 11.793 9.019 11.779 9.039 A 0.336 0.336 0 0 0 11.777 9.042 L 11.748 9.086 A 0.322 0.322 0 0 0 11.726 9.174 Q 11.725 9.188 11.725 9.203 A 0.294 0.294 0 0 0 11.726 9.233 Q 11.732 9.271 11.733 9.344 A 2.699 2.699 0 0 1 11.733 9.394 Z M 38.35 9.936 L 38.496 9.994 A 0.504 0.504 0 0 0 38.539 10.073 Q 38.564 10.111 38.599 10.151 A 1.134 1.134 0 0 0 38.657 10.214 A 1.559 1.559 0 0 1 38.698 10.407 A 1.284 1.284 0 0 1 38.708 10.522 A 0.648 0.648 0 0 1 38.709 10.554 A 0.599 0.599 0 0 1 38.657 10.8 A 0.509 0.509 0 0 0 38.498 11.023 A 0.601 0.601 0 0 0 38.496 11.027 Q 38.452 11.144 38.35 11.225 A 0.58 0.58 0 0 1 38.181 11.342 A 1.165 1.165 0 0 0 38.04 11.419 A 1.008 1.008 0 0 0 37.983 11.459 Q 37.83 11.506 37.72 11.482 A 0.303 0.303 0 0 1 37.668 11.466 Q 37.544 11.415 37.441 11.327 Q 37.266 11.166 37.262 10.877 A 1.345 1.345 0 0 1 37.262 10.86 A 1.37 1.37 0 0 1 37.379 10.309 A 1.276 1.276 0 0 1 37.46 10.152 Q 37.51 10.07 37.566 10.011 A 0.568 0.568 0 0 1 37.676 9.921 A 6.48 6.48 0 0 1 37.76 9.894 A 4.859 4.859 0 0 1 37.837 9.87 A 0.771 0.771 0 0 1 37.892 9.855 Q 37.95 9.843 38.027 9.833 A 0.233 0.233 0 0 0 38.085 9.866 A 0.288 0.288 0 0 0 38.115 9.877 A 0.118 0.118 0 0 1 38.179 9.908 A 0.175 0.175 0 0 1 38.203 9.936 A 0.201 0.201 0 0 1 38.258 9.922 Q 38.304 9.917 38.35 9.936 Z M 30.63 3.783 L 30.776 3.827 A 0.133 0.133 0 0 1 30.805 3.903 A 0.17 0.17 0 0 1 30.806 3.915 A 0.069 0.069 0 0 0 30.815 3.948 Q 30.821 3.959 30.83 3.97 A 0.186 0.186 0 0 0 30.85 3.988 Q 30.82 4.12 30.798 4.259 A 1.758 1.758 0 0 0 30.777 4.497 A 1.599 1.599 0 0 0 30.776 4.53 A 0.155 0.155 0 0 0 30.79 4.593 A 0.221 0.221 0 0 0 30.813 4.633 A 0.297 0.297 0 0 1 30.831 4.661 Q 30.85 4.694 30.85 4.721 Q 30.776 4.889 30.74 4.926 A 0.165 0.165 0 0 0 30.721 4.948 Q 30.703 4.974 30.703 4.999 A 0.254 0.254 0 0 0 30.643 5.032 A 0.204 0.204 0 0 0 30.593 5.087 A 0.119 0.119 0 0 1 30.519 5.14 Q 30.498 5.145 30.472 5.146 A 0.259 0.259 0 0 1 30.469 5.146 Q 30.44 5.189 30.404 5.211 A 0.16 0.16 0 0 1 30.403 5.212 A 0.118 0.118 0 0 0 30.368 5.246 A 0.114 0.114 0 0 0 30.352 5.292 A 0.596 0.596 0 0 1 30.116 5.34 Q 29.977 5.34 29.824 5.277 A 0.521 0.521 0 0 0 29.752 5.179 A 0.383 0.383 0 0 0 29.619 5.087 A 0.55 0.55 0 0 1 29.52 4.77 Q 29.52 4.611 29.604 4.428 A 3.409 3.409 0 0 1 29.644 4.333 A 4.047 4.047 0 0 1 29.67 4.274 Q 29.707 4.193 29.736 4.164 A 3.398 3.398 0 0 1 29.809 4.114 Q 29.882 4.064 29.934 4.036 A 0.597 0.597 0 0 1 29.971 4.018 A 1.464 1.464 0 0 0 30.001 4.002 A 1.806 1.806 0 0 0 30.033 3.985 Q 30.066 3.966 30.095 3.944 A 0.36 0.36 0 0 1 30.132 3.922 Q 30.172 3.9 30.23 3.878 A 1.288 1.288 0 0 1 30.249 3.871 A 0.315 0.315 0 0 1 30.286 3.861 Q 30.306 3.857 30.324 3.857 A 0.187 0.187 0 0 1 30.33 3.857 Q 30.388 3.857 30.439 3.827 A 1.877 1.877 0 0 0 30.468 3.82 A 1.557 1.557 0 0 0 30.494 3.813 A 1.277 1.277 0 0 0 30.519 3.805 A 1.034 1.034 0 0 0 30.542 3.798 A 0.835 0.835 0 0 1 30.569 3.792 Q 30.608 3.783 30.63 3.783 Z" vector-effect="non-scaling-stroke"/></g></svg>