<svg width="43.55" height="10.305" viewBox="0 0 43.55 10.305" xmlns="http://www.w3.org/2000/svg"><g id="svgGroup" stroke-linecap="round" fill-rule="evenodd" font-size="9pt" stroke="#ffffff" stroke-width="0.25mm" fill="#ffffff" style="stroke:#ffffff;stroke-width:0.25mm;fill:#ffffff"><path d="M 0.703 9.478 A 23.868 23.868 0 0 0 0.626 8.429 A 18.78 18.78 0 0 0 0.538 7.679 A 33.553 33.553 0 0 0 0.452 7.091 Q 0.379 6.625 0.304 6.24 A 41.395 41.395 0 0 0 0.245 5.947 Q 0.16 5.53 0.092 5.244 Q 0.019 4.943 0.004 4.821 A 0.448 0.448 0 0 1 0 4.768 A 0.385 0.385 0 0 1 0.045 4.591 A 0.548 0.548 0 0 1 0.106 4.497 A 0.986 0.986 0 0 1 0.292 4.321 A 1.185 1.185 0 0 1 0.374 4.266 A 1.548 1.548 0 0 1 0.721 4.109 A 1.412 1.412 0 0 1 0.879 4.069 Q 0.975 4.05 1.062 4.05 A 0.597 0.597 0 0 1 1.165 4.059 A 0.433 0.433 0 0 1 1.278 4.094 A 0.244 0.244 0 0 1 1.401 4.228 A 0.322 0.322 0 0 1 1.406 4.241 A 5.528 5.528 0 0 1 1.459 4.434 A 6.156 6.156 0 0 1 1.476 4.501 Q 1.498 4.594 1.523 4.713 A 9.69 9.69 0 0 1 1.545 4.827 A 1.61 1.61 0 0 0 1.561 4.912 Q 1.589 5.037 1.625 5.078 A 0.05 0.05 0 0 0 1.663 5.098 A 0.076 0.076 0 0 0 1.708 5.08 Q 1.771 5.032 1.846 4.856 A 3.395 3.395 0 0 1 1.973 4.593 Q 2.063 4.426 2.161 4.299 A 1.735 1.735 0 0 1 2.336 4.102 A 1.331 1.331 0 0 1 2.523 3.951 A 1.324 1.324 0 0 1 2.821 3.803 A 1.195 1.195 0 0 1 2.926 3.772 A 1.818 1.818 0 0 1 3.355 3.721 A 2.026 2.026 0 0 1 3.362 3.721 A 1.488 1.488 0 0 1 4.467 4.195 A 1.962 1.962 0 0 1 4.53 4.263 A 2.707 2.707 0 0 1 4.885 4.783 Q 5.025 5.043 5.138 5.364 A 5.996 5.996 0 0 1 5.281 5.83 A 1.321 1.321 0 0 0 5.296 5.877 Q 5.324 5.954 5.347 5.98 A 0.114 0.114 0 0 0 5.368 5.999 A 0.078 0.078 0 0 0 5.413 6.013 A 0.094 0.094 0 0 0 5.448 6.006 Q 5.461 6.001 5.475 5.991 A 0.206 0.206 0 0 0 5.49 5.98 Q 5.522 5.954 5.552 5.882 A 0.74 0.74 0 0 0 5.566 5.845 Q 5.736 5.384 5.961 5.058 A 2.584 2.584 0 0 1 5.977 5.035 A 3.274 3.274 0 0 1 6.2 4.75 Q 6.329 4.604 6.464 4.493 A 1.96 1.96 0 0 1 6.735 4.304 A 1.547 1.547 0 0 1 6.98 4.189 A 1.653 1.653 0 0 1 7.262 4.114 A 1.322 1.322 0 0 1 7.485 4.094 A 1.158 1.158 0 0 1 8.214 4.353 A 1.513 1.513 0 0 1 8.295 4.42 Q 8.558 4.657 8.779 5.079 A 4.353 4.353 0 0 1 8.939 5.424 A 6.573 6.573 0 0 1 9.14 5.982 Q 9.237 6.291 9.324 6.653 A 13.909 13.909 0 0 1 9.43 7.137 A 18.704 18.704 0 0 1 9.577 7.969 Q 9.648 8.43 9.709 8.95 A 34.766 34.766 0 0 1 9.778 9.595 Q 9.778 9.843 9.682 9.998 A 0.474 0.474 0 0 1 9.536 10.148 A 0.874 0.874 0 0 1 9.293 10.255 Q 9.181 10.286 9.046 10.298 A 1.935 1.935 0 0 1 8.877 10.305 A 1.014 1.014 0 0 1 8.712 10.293 Q 8.624 10.278 8.553 10.247 A 0.491 0.491 0 0 1 8.452 10.188 A 0.444 0.444 0 0 1 8.316 10.023 A 0.456 0.456 0 0 1 8.276 9.88 Q 8.187 8.93 8.083 8.174 A 26.623 26.623 0 0 0 8.068 8.068 Q 7.99 7.521 7.903 7.093 A 10.01 10.01 0 0 0 7.822 6.727 A 5.937 5.937 0 0 0 7.738 6.415 Q 7.642 6.093 7.533 5.896 A 0.986 0.986 0 0 0 7.457 5.778 Q 7.331 5.61 7.185 5.61 A 0.175 0.175 0 0 0 7.121 5.624 Q 7.066 5.646 6.999 5.702 A 0.989 0.989 0 0 0 6.947 5.75 A 0.747 0.747 0 0 0 6.865 5.846 Q 6.759 5.993 6.643 6.259 A 4.551 4.551 0 0 0 6.541 6.516 Q 6.427 6.829 6.306 7.269 A 10.622 10.622 0 0 0 6.182 7.776 Q 6.072 8.268 5.969 8.906 Q 5.925 9.185 5.702 9.331 A 0.875 0.875 0 0 1 5.384 9.457 A 1.204 1.204 0 0 1 5.156 9.478 Q 4.863 9.478 4.712 9.405 A 0.353 0.353 0 0 1 4.64 9.36 A 0.374 0.374 0 0 1 4.535 9.218 Q 4.49 9.115 4.482 8.965 A 11.593 11.593 0 0 0 4.384 8.002 A 10.954 10.954 0 0 0 4.249 7.251 A 9.723 9.723 0 0 0 4.211 7.086 A 9.704 9.704 0 0 0 4.076 6.573 A 7.892 7.892 0 0 0 3.984 6.281 A 5.879 5.879 0 0 0 3.864 5.955 Q 3.795 5.782 3.721 5.636 A 2.561 2.561 0 0 0 3.618 5.451 Q 3.564 5.364 3.51 5.295 A 1.182 1.182 0 0 0 3.435 5.208 A 0.709 0.709 0 0 0 3.353 5.133 Q 3.307 5.097 3.261 5.078 A 0.281 0.281 0 0 0 3.149 5.054 Q 2.975 5.054 2.81 5.287 A 1.198 1.198 0 0 0 2.794 5.31 A 1.658 1.658 0 0 0 2.68 5.511 Q 2.575 5.728 2.487 6.035 Q 2.351 6.504 2.271 7.163 Q 2.19 7.822 2.19 8.635 Q 2.19 8.774 2.197 8.91 A 5.081 5.081 0 0 1 2.204 9.119 A 5.693 5.693 0 0 1 2.205 9.192 A 1.147 1.147 0 0 1 2.196 9.333 Q 2.181 9.459 2.135 9.551 A 0.538 0.538 0 0 1 1.937 9.771 A 0.771 0.771 0 0 1 1.732 9.86 A 0.946 0.946 0 0 1 1.641 9.88 A 1.966 1.966 0 0 1 1.424 9.905 A 2.448 2.448 0 0 1 1.274 9.91 Q 1.091 9.91 0.981 9.884 Q 0.872 9.858 0.813 9.807 A 0.253 0.253 0 0 1 0.743 9.704 A 0.321 0.321 0 0 1 0.732 9.672 Q 0.71 9.587 0.703 9.478 Z M 25.036 0.506 A 1.072 1.072 0 0 0 25.02 0.703 A 0.128 0.128 0 0 0 25.02 0.713 Q 25.023 0.754 25.049 0.888 A 11.969 11.969 0 0 0 25.063 0.967 A 396.401 396.401 0 0 0 25.086 1.082 Q 25.125 1.287 25.184 1.589 Q 25.261 1.985 25.367 2.538 A 61.755 61.755 0 0 1 25.476 3.121 A 82.623 82.623 0 0 1 25.591 3.765 A 0.309 0.309 0 0 1 25.599 3.794 A 0.247 0.247 0 0 1 25.605 3.849 L 25.605 3.926 Q 25.605 4.01 25.584 4.073 A 0.264 0.264 0 0 1 25.521 4.178 Q 25.471 4.229 25.398 4.262 A 0.616 0.616 0 0 1 25.291 4.299 Q 24.646 4.417 24.133 4.552 A 13.111 13.111 0 0 0 24.122 4.555 Q 23.777 4.647 23.525 4.733 A 4.288 4.288 0 0 0 23.313 4.812 A 0.684 0.684 0 0 0 23.215 4.865 A 0.506 0.506 0 0 0 23.104 4.962 Q 23.027 5.054 22.987 5.16 A 1.07 1.07 0 0 0 22.982 5.173 A 0.967 0.967 0 0 0 22.932 5.372 A 1.976 1.976 0 0 0 22.928 5.402 Q 22.923 5.445 22.92 5.484 A 1.086 1.086 0 0 0 22.917 5.559 Q 22.917 5.786 22.998 5.936 A 0.36 0.36 0 0 0 23.016 5.967 Q 23.097 6.086 23.247 6.086 Q 23.313 6.086 23.388 6.079 A 2.041 2.041 0 0 0 23.525 6.061 A 1.604 1.604 0 0 0 23.571 6.052 Q 23.641 6.039 23.718 6.018 A 3.016 3.016 0 0 0 23.877 5.969 A 9.748 9.748 0 0 1 24.148 5.883 A 11.587 11.587 0 0 1 24.631 5.75 A 29.845 29.845 0 0 1 25.047 5.647 A 35.369 35.369 0 0 1 25.488 5.544 A 0.147 0.147 0 0 0 25.498 5.544 Q 25.517 5.543 25.54 5.537 Q 25.569 5.53 25.591 5.53 A 0.421 0.421 0 0 1 25.613 5.53 Q 25.857 5.543 25.92 5.845 A 52.496 52.496 0 0 1 26.14 7.592 A 30.318 30.318 0 0 1 26.279 9.331 A 1.017 1.017 0 0 0 26.29 9.437 Q 26.303 9.518 26.329 9.583 A 0.44 0.44 0 0 0 26.426 9.734 A 0.389 0.389 0 0 0 26.545 9.814 Q 26.607 9.842 26.685 9.854 A 0.932 0.932 0 0 0 26.836 9.866 A 3.163 3.163 0 0 0 26.978 9.863 Q 27.078 9.858 27.164 9.847 A 1.447 1.447 0 0 0 27.323 9.818 Q 27.517 9.771 27.634 9.657 A 0.588 0.588 0 0 0 27.735 9.527 A 0.725 0.725 0 0 0 27.803 9.364 A 1.091 1.091 0 0 0 27.824 9.275 Q 27.854 9.123 27.854 8.921 Q 27.854 8.826 27.821 8.536 Q 27.796 8.319 27.759 8.02 A 97.436 97.436 0 0 0 27.733 7.811 A 61.207 61.207 0 0 0 27.717 7.686 Q 27.667 7.297 27.601 6.819 A 4879.913 4879.913 0 0 1 27.522 6.242 A 5973.019 5973.019 0 0 1 27.437 5.625 A 0.165 0.165 0 0 0 27.436 5.61 Q 27.435 5.602 27.433 5.591 A 0.394 0.394 0 0 0 27.429 5.57 Q 27.425 5.549 27.423 5.532 A 0.171 0.171 0 0 1 27.422 5.515 A 0.445 0.445 0 0 1 27.424 5.468 Q 27.45 5.226 27.751 5.186 A 32.547 32.547 0 0 1 29.044 5.079 Q 29.692 5.039 30.33 5.039 A 0.553 0.553 0 0 0 30.386 5.036 A 0.446 0.446 0 0 0 30.564 4.98 A 0.567 0.567 0 0 0 30.736 4.83 Q 30.806 4.739 30.846 4.622 A 0.802 0.802 0 0 0 30.866 4.553 A 0.66 0.66 0 0 0 30.886 4.395 A 1.636 1.636 0 0 0 30.868 4.149 A 0.736 0.736 0 0 0 30.862 4.116 A 0.637 0.637 0 0 0 30.795 3.929 A 0.452 0.452 0 0 0 30.645 3.768 A 0.323 0.323 0 0 0 30.586 3.738 Q 30.504 3.706 30.388 3.706 A 4.895 4.895 0 0 0 30.329 3.706 Q 30.239 3.708 30.138 3.712 A 8.734 8.734 0 0 0 29.916 3.724 A 29.377 29.377 0 0 0 29.641 3.745 A 34.404 34.404 0 0 0 29.352 3.768 Q 29.055 3.794 28.759 3.823 A 509.003 509.003 0 0 0 28.472 3.852 A 409.095 409.095 0 0 0 28.206 3.878 A 320.374 320.374 0 0 1 28.052 3.893 Q 27.979 3.901 27.912 3.907 A 172.22 172.22 0 0 1 27.762 3.922 Q 27.622 3.936 27.542 3.939 A 1.116 1.116 0 0 1 27.495 3.94 A 0.455 0.455 0 0 1 27.411 3.933 Q 27.25 3.903 27.186 3.747 A 0.548 0.548 0 0 1 27.151 3.611 A 111.501 111.501 0 0 1 26.927 2.153 Q 26.821 1.428 26.733 0.747 A 2.847 2.847 0 0 0 26.714 0.64 Q 26.698 0.566 26.68 0.502 A 1.323 1.323 0 0 0 26.642 0.385 Q 26.587 0.242 26.495 0.154 A 0.486 0.486 0 0 0 26.276 0.033 Q 26.196 0.012 26.094 0.005 A 1.713 1.713 0 0 0 25.964 0 Q 25.625 0 25.414 0.071 A 0.662 0.662 0 0 0 25.239 0.157 Q 25.08 0.271 25.036 0.506 Z M 33.869 3.128 A 0.273 0.273 0 0 0 33.838 3.252 A 1.224 1.224 0 0 0 33.84 3.317 Q 33.845 3.41 33.863 3.547 A 6.9 6.9 0 0 0 33.882 3.684 A 3.608 3.608 0 0 1 33.882 3.685 Q 33.915 3.905 33.96 4.295 A 51.369 51.369 0 0 1 33.992 4.574 Q 34.041 5.022 34.097 5.688 A 87.141 87.141 0 0 1 34.135 6.156 A 38.481 38.481 0 0 1 34.142 6.255 Q 34.196 6.964 34.244 7.936 A 118.575 118.575 0 0 1 34.277 8.665 A 0.539 0.539 0 0 0 34.28 8.691 A 0.399 0.399 0 0 0 34.431 8.965 A 0.436 0.436 0 0 0 34.542 9.027 Q 34.604 9.052 34.682 9.064 A 1.014 1.014 0 0 0 34.834 9.075 A 1.729 1.729 0 0 0 34.877 9.074 Q 35.027 9.07 35.156 9.04 A 0.962 0.962 0 0 0 35.486 8.899 Q 35.742 8.723 35.779 8.43 A 43.527 43.527 0 0 1 35.862 7.787 Q 35.905 7.479 35.948 7.202 A 23.401 23.401 0 0 1 36.053 6.577 Q 36.144 6.086 36.239 5.703 A 8.059 8.059 0 0 1 36.35 5.295 A 5.885 5.885 0 0 1 36.38 5.199 Q 36.52 4.767 36.669 4.552 A 0.875 0.875 0 0 1 36.74 4.461 Q 36.874 4.314 37.024 4.314 A 0.25 0.25 0 0 1 37.113 4.331 Q 37.215 4.369 37.317 4.496 A 1.25 1.25 0 0 1 37.405 4.622 Q 37.536 4.833 37.668 5.178 A 7.37 7.37 0 0 1 37.789 5.519 A 11.831 11.831 0 0 1 37.911 5.914 Q 37.973 6.125 38.035 6.363 A 23.919 23.919 0 0 1 38.185 6.973 A 36.411 36.411 0 0 1 38.242 7.221 Q 38.416 7.993 38.599 8.95 A 0.464 0.464 0 0 0 38.63 9.051 A 0.293 0.293 0 0 0 38.771 9.199 Q 38.87 9.248 39.063 9.26 A 2.278 2.278 0 0 0 39.214 9.265 Q 39.368 9.265 39.521 9.225 Q 39.675 9.185 39.8 9.108 A 0.624 0.624 0 0 0 40.001 8.91 A 0.474 0.474 0 0 0 40.062 8.763 A 0.618 0.618 0 0 0 40.078 8.621 A 1.006 1.006 0 0 0 40.077 8.576 A 1.212 1.212 0 0 0 40.071 8.496 A 1.84 1.84 0 0 0 40.062 8.427 A 2.523 2.523 0 0 0 40.049 8.35 A 47.828 47.828 0 0 0 39.861 7.41 Q 39.767 6.964 39.673 6.568 A 23.613 23.613 0 0 0 39.448 5.687 Q 39.256 4.995 39.05 4.474 A 6.527 6.527 0 0 0 38.815 3.944 Q 38.481 3.281 38.097 2.988 A 1.375 1.375 0 0 0 37.244 2.695 Q 36.454 2.695 35.955 3.639 A 4.286 4.286 0 0 0 35.698 4.241 Q 35.65 4.406 35.602 4.451 A 0.053 0.053 0 0 1 35.566 4.468 Q 35.522 4.468 35.497 4.391 Q 35.471 4.314 35.442 4.167 A 25.932 25.932 0 0 0 35.441 4.162 Q 35.398 3.69 35.35 3.395 A 5.346 5.346 0 0 0 35.341 3.339 Q 35.297 3.082 35.244 2.933 Q 35.186 2.769 35.109 2.71 A 0.276 0.276 0 0 0 35.016 2.664 A 0.342 0.342 0 0 0 34.922 2.651 A 1.432 1.432 0 0 0 34.53 2.706 A 1.909 1.909 0 0 0 34.39 2.752 A 1.542 1.542 0 0 0 34.182 2.845 A 1.104 1.104 0 0 0 34.051 2.929 A 0.805 0.805 0 0 0 33.933 3.036 Q 33.892 3.082 33.869 3.128 Z M 16.45 5.229 L 16.479 5.815 Q 16.505 6.711 16.703 7.194 A 1.475 1.475 0 0 0 16.776 7.346 A 1.249 1.249 0 0 0 16.94 7.58 Q 17.065 7.718 17.216 7.78 A 0.681 0.681 0 0 0 17.476 7.83 Q 17.627 7.83 17.746 7.801 A 0.862 0.862 0 0 0 17.75 7.8 A 1.972 1.972 0 0 0 17.923 7.75 A 1.723 1.723 0 0 0 17.977 7.731 A 3.593 3.593 0 0 1 18.106 7.685 A 2.948 2.948 0 0 1 18.179 7.661 A 0.645 0.645 0 0 1 18.369 7.632 Q 18.538 7.632 18.666 7.778 Q 18.794 7.925 18.794 8.13 A 0.581 0.581 0 0 1 18.74 8.37 Q 18.705 8.448 18.646 8.527 A 1.051 1.051 0 0 1 18.636 8.54 A 1.461 1.461 0 0 1 18.415 8.769 A 1.887 1.887 0 0 1 18.223 8.91 A 2.325 2.325 0 0 1 17.806 9.12 A 2.746 2.746 0 0 1 17.644 9.177 A 2.138 2.138 0 0 1 16.992 9.28 A 1.276 1.276 0 0 1 16.127 8.943 A 1.778 1.778 0 0 1 15.989 8.807 Q 15.654 8.442 15.469 7.81 A 4.575 4.575 0 0 1 15.374 7.419 Q 15.33 7.273 15.256 7.273 A 0.169 0.169 0 0 0 15.146 7.314 A 0.272 0.272 0 0 0 15.103 7.361 Q 14.377 8.276 13.557 8.734 A 3.832 3.832 0 0 1 12.793 9.063 A 2.96 2.96 0 0 1 11.938 9.192 A 2.188 2.188 0 0 1 11.562 9.161 A 1.729 1.729 0 0 1 11.265 9.082 A 1.516 1.516 0 0 1 10.925 8.909 A 1.322 1.322 0 0 1 10.756 8.771 A 1.348 1.348 0 0 1 10.455 8.334 A 1.567 1.567 0 0 1 10.433 8.28 A 1.635 1.635 0 0 1 10.333 7.87 A 2.061 2.061 0 0 1 10.32 7.632 A 2.569 2.569 0 0 1 10.399 7.014 A 3.362 3.362 0 0 1 10.543 6.57 A 5.233 5.233 0 0 1 10.967 5.743 A 6.121 6.121 0 0 1 11.147 5.471 A 7.344 7.344 0 0 1 11.968 4.5 A 8.075 8.075 0 0 1 12.03 4.438 A 7.564 7.564 0 0 1 13.085 3.574 A 5.789 5.789 0 0 1 13.924 3.1 A 5.117 5.117 0 0 1 14.209 2.981 A 3.445 3.445 0 0 1 14.784 2.813 A 2.687 2.687 0 0 1 15.3 2.761 A 2.439 2.439 0 0 1 16.077 2.886 A 2.317 2.317 0 0 1 16.558 3.108 A 2.052 2.052 0 0 1 16.736 3.23 A 1.719 1.719 0 0 1 17.194 3.757 A 1.366 1.366 0 0 1 17.366 4.414 A 1.607 1.607 0 0 1 17.366 4.438 Q 17.366 4.592 17.296 4.735 Q 17.227 4.878 17.109 4.984 A 0.919 0.919 0 0 1 16.842 5.153 Q 16.692 5.215 16.531 5.215 A 0.099 0.099 0 0 0 16.519 5.216 Q 16.512 5.216 16.507 5.218 A 0.059 0.059 0 0 0 16.505 5.219 A 0.068 0.068 0 0 1 16.493 5.221 Q 16.488 5.222 16.481 5.222 A 0.114 0.114 0 0 1 16.479 5.222 A 0.071 0.071 0 0 1 16.463 5.228 A 0.06 0.06 0 0 1 16.45 5.229 Z M 22.998 3.684 Q 22.727 3.684 22.522 3.827 A 1.115 1.115 0 0 0 22.281 4.058 A 1.44 1.44 0 0 0 22.17 4.222 A 2.237 2.237 0 0 0 22.026 4.525 A 2.99 2.99 0 0 0 21.929 4.816 Q 21.833 5.156 21.775 5.559 A 8.769 8.769 0 0 0 21.704 6.238 A 9.863 9.863 0 0 0 21.694 6.401 A 17.745 17.745 0 0 0 21.672 7.288 A 13.798 13.798 0 0 0 21.72 8.441 A 14.064 14.064 0 0 1 21.758 9.053 A 10.987 10.987 0 0 1 21.768 9.492 A 0.679 0.679 0 0 1 21.732 9.718 A 0.572 0.572 0 0 1 21.533 9.987 Q 21.35 10.127 21.047 10.157 A 1.789 1.789 0 0 1 20.867 10.166 Q 20.786 10.166 20.684 10.151 A 0.662 0.662 0 0 1 20.49 10.093 Q 20.398 10.049 20.328 9.972 Q 20.259 9.895 20.251 9.763 A 16.449 16.449 0 0 0 20.069 8.487 A 17.928 17.928 0 0 0 20.061 8.445 A 15.487 15.487 0 0 0 19.75 7.101 A 13.494 13.494 0 0 0 19.303 5.771 Q 19.043 5.112 18.706 4.482 A 2.932 2.932 0 0 1 18.652 4.376 A 2.219 2.219 0 0 1 18.607 4.277 A 0.535 0.535 0 0 1 18.577 4.184 A 0.417 0.417 0 0 1 18.567 4.094 A 0.289 0.289 0 0 1 18.586 3.995 Q 18.6 3.955 18.626 3.914 A 0.666 0.666 0 0 1 18.666 3.856 A 1.132 1.132 0 0 1 18.809 3.703 A 1.404 1.404 0 0 1 18.915 3.618 A 1.432 1.432 0 0 1 19.244 3.439 A 1.053 1.053 0 0 1 19.443 3.382 A 0.863 0.863 0 0 1 19.592 3.369 A 0.417 0.417 0 0 1 19.853 3.465 Q 19.921 3.517 19.983 3.599 A 1.246 1.246 0 0 1 20.083 3.754 A 2.229 2.229 0 0 1 20.2 4.006 Q 20.347 4.375 20.479 4.98 Q 20.512 5.115 20.534 5.176 A 0.536 0.536 0 0 0 20.537 5.186 Q 20.559 5.244 20.596 5.244 A 0.057 0.057 0 0 0 20.642 5.218 Q 20.676 5.173 20.692 5.052 A 1.298 1.298 0 0 0 20.698 4.995 Q 20.786 4.299 20.999 3.798 Q 21.211 3.296 21.53 2.97 A 1.978 1.978 0 0 1 22.262 2.49 Q 22.676 2.336 23.174 2.336 Q 23.459 2.336 23.752 2.388 A 2.548 2.548 0 0 1 24.063 2.462 A 2.032 2.032 0 0 1 24.28 2.542 A 1.468 1.468 0 0 1 24.477 2.645 A 1.061 1.061 0 0 1 24.661 2.791 A 0.54 0.54 0 0 1 24.755 2.916 A 0.425 0.425 0 0 1 24.807 3.12 A 0.788 0.788 0 0 1 24.798 3.234 Q 24.79 3.29 24.774 3.353 A 1.632 1.632 0 0 1 24.752 3.431 Q 24.697 3.611 24.609 3.776 A 1.294 1.294 0 0 1 24.504 3.943 A 1.031 1.031 0 0 1 24.408 4.054 A 0.497 0.497 0 0 1 24.337 4.114 Q 24.258 4.167 24.177 4.167 A 0.466 0.466 0 0 1 23.968 4.117 A 0.58 0.58 0 0 1 23.921 4.091 A 173.08 173.08 0 0 0 23.792 4.011 A 212.252 212.252 0 0 0 23.654 3.926 A 3.519 3.519 0 0 0 23.353 3.761 A 0.76 0.76 0 0 0 23.1 3.69 A 0.941 0.941 0 0 0 22.998 3.684 Z M 30.557 3.926 Q 30.557 3.669 30.78 3.505 A 0.796 0.796 0 0 1 31.053 3.377 Q 31.195 3.34 31.37 3.34 A 1.431 1.431 0 0 1 31.612 3.359 Q 32.038 3.432 32.073 3.794 A 62.698 62.698 0 0 1 32.102 4.118 Q 32.117 4.289 32.133 4.479 A 96.574 96.574 0 0 1 32.135 4.504 A 87.025 87.025 0 0 1 32.168 4.912 A 103.079 103.079 0 0 1 32.201 5.343 A 45.293 45.293 0 0 1 32.253 6.141 A 49.739 49.739 0 0 1 32.26 6.259 A 149.123 149.123 0 0 1 32.307 7.189 A 67.404 67.404 0 0 1 32.336 7.857 A 60.185 60.185 0 0 1 32.344 8.071 A 26.102 26.102 0 0 1 32.355 8.478 A 19.643 19.643 0 0 1 32.358 8.848 A 0.816 0.816 0 0 1 32.329 9.073 A 0.581 0.581 0 0 1 32.098 9.397 A 0.866 0.866 0 0 1 31.859 9.512 Q 31.745 9.548 31.605 9.565 A 2.201 2.201 0 0 1 31.34 9.58 Q 31.175 9.58 31.062 9.524 A 0.4 0.4 0 0 1 30.985 9.474 A 0.342 0.342 0 0 1 30.869 9.281 A 0.529 0.529 0 0 1 30.857 9.163 A 38.015 38.015 0 0 0 30.838 7.949 A 31.052 31.052 0 0 0 30.809 7.269 Q 30.768 6.511 30.722 5.896 A 44.48 44.48 0 0 0 30.707 5.698 A 75.931 75.931 0 0 0 30.68 5.368 Q 30.64 4.895 30.604 4.552 Q 30.563 4.156 30.558 3.976 A 1.651 1.651 0 0 1 30.557 3.926 Z M 15.059 5.295 Q 15.19 5.046 15.3 4.933 A 0.462 0.462 0 0 1 15.441 4.835 Q 15.518 4.8 15.615 4.783 A 0.505 0.505 0 0 0 15.67 4.772 Q 15.727 4.758 15.753 4.733 A 0.07 0.07 0 0 0 15.776 4.68 A 0.18 0.18 0 0 0 15.766 4.622 Q 15.755 4.59 15.732 4.556 A 2.469 2.469 0 0 0 15.543 4.326 A 2.075 2.075 0 0 0 15.439 4.222 A 0.52 0.52 0 0 0 15.19 4.096 A 0.76 0.76 0 0 0 15.029 4.08 Q 14.751 4.08 14.407 4.241 A 3.608 3.608 0 0 0 13.994 4.47 A 4.575 4.575 0 0 0 13.707 4.669 A 6.445 6.445 0 0 0 13.14 5.152 A 7.288 7.288 0 0 0 13.011 5.277 A 6.23 6.23 0 0 0 12.509 5.842 A 5.556 5.556 0 0 0 12.407 5.977 A 4.442 4.442 0 0 0 12.13 6.4 A 3.595 3.595 0 0 0 11.982 6.687 A 2.125 2.125 0 0 0 11.885 6.938 Q 11.821 7.142 11.821 7.317 Q 11.821 7.566 11.957 7.705 A 0.449 0.449 0 0 0 12.195 7.832 A 0.659 0.659 0 0 0 12.327 7.844 A 1.356 1.356 0 0 0 12.833 7.739 Q 13.036 7.658 13.25 7.513 A 3.626 3.626 0 0 0 13.638 7.207 A 4.913 4.913 0 0 0 14.159 6.653 Q 14.409 6.347 14.658 5.963 A 11.639 11.639 0 0 0 15.059 5.295 Z M 31.25 1.655 A 1.288 1.288 0 0 0 31.56 1.692 Q 31.758 1.692 31.914 1.647 A 0.794 0.794 0 0 0 32.186 1.512 A 0.571 0.571 0 0 0 32.382 1.243 A 0.689 0.689 0 0 0 32.417 1.018 Q 32.417 0.85 32.336 0.692 Q 32.256 0.535 32.12 0.417 A 1.026 1.026 0 0 0 32.112 0.41 A 1.08 1.08 0 0 0 31.809 0.231 A 0.986 0.986 0 0 0 31.443 0.161 A 1.662 1.662 0 0 0 31.36 0.163 Q 31.216 0.17 31.095 0.203 A 0.856 0.856 0 0 0 30.787 0.352 A 0.787 0.787 0 0 0 30.779 0.358 Q 30.662 0.452 30.603 0.572 A 0.622 0.622 0 0 0 30.542 0.85 A 0.832 0.832 0 0 0 30.542 0.855 A 0.714 0.714 0 0 0 30.623 1.187 A 0.877 0.877 0 0 0 30.839 1.454 A 0.892 0.892 0 0 0 30.948 1.532 A 1.041 1.041 0 0 0 31.161 1.63 A 1.167 1.167 0 0 0 31.25 1.655 Z M 42.693 9.031 Q 42.48 9.031 42.294 8.965 Q 42.107 8.899 41.968 8.785 A 0.81 0.81 0 0 1 41.752 8.518 A 0.727 0.727 0 0 1 41.675 8.188 A 0.622 0.622 0 0 1 41.736 7.911 Q 41.795 7.79 41.912 7.697 A 0.787 0.787 0 0 1 41.92 7.69 A 0.862 0.862 0 0 1 42.236 7.539 Q 42.386 7.5 42.568 7.5 A 1.015 1.015 0 0 1 42.938 7.57 A 1.091 1.091 0 0 1 43.192 7.707 A 0.998 0.998 0 0 1 43.253 7.756 A 0.921 0.921 0 0 1 43.469 8.027 Q 43.55 8.181 43.55 8.35 A 0.72 0.72 0 0 1 43.517 8.571 A 0.57 0.57 0 0 1 43.319 8.851 A 0.794 0.794 0 0 1 43.047 8.986 Q 42.891 9.031 42.693 9.031 Z" vector-effect="non-scaling-stroke"/></g></svg>